<?xml version="1.0" encoding="UTF-8"?>
<svg version="1.1" xmlns="http://www.w3.org/2000/svg" width="512" height="512">
<path d="M0 0 C168.96 0 337.92 0 512 0 C512 168.96 512 337.92 512 512 C343.04 512 174.08 512 0 512 C0 343.04 0 174.08 0 0 Z " fill="#FCFDFD" transform="translate(0,0)"/>
<path d="M0 0 C168.96 0 337.92 0 512 0 C512 50.16 512 100.32 512 152 C343.04 152 174.08 152 0 152 C0 101.84 0 51.68 0 0 Z " fill="#FDFEFE" transform="translate(0,360)"/>
<path d="M0 0 C18.71852218 16.14688902 32.41942912 38.54204448 34.95703125 63.55078125 C34.95703125 66.85078125 34.95703125 70.15078125 34.95703125 73.55078125 C-29.72296875 73.55078125 -94.40296875 73.55078125 -161.04296875 73.55078125 C-161.04296875 67.09954815 -160.61874535 61.98253338 -159.35546875 55.80078125 C-159.17612793 54.92043213 -158.99678711 54.04008301 -158.81201172 53.13305664 C-157.32500327 46.20069206 -155.23599462 39.89937815 -152.04296875 33.55078125 C-151.61371094 32.65617187 -151.18445313 31.7615625 -150.7421875 30.83984375 C-139.43169902 8.60119316 -119.52175143 -8.8707873 -95.875 -16.91796875 C-62.94147221 -27.44596088 -26.96196296 -22.3086935 0 0 Z " fill="#024F96" transform="translate(319.04296875,267.44921875)"/>
<path d="M0 0 C168.96 0 337.92 0 512 0 C512 3.3 512 6.6 512 10 C343.04 10 174.08 10 0 10 C0 6.7 0 3.4 0 0 Z " fill="#084D92" transform="translate(0,350)"/>
<path d="M0 0 C128.7 0 257.4 0 390 0 C390 3.3 390 6.6 390 10 C261.3 10 132.6 10 0 10 C0 6.7 0 3.4 0 0 Z " fill="#01438D" transform="translate(61,370)"/>
<path d="M0 0 C3.96 0 7.92 0 12 0 C12 41.91 12 83.82 12 127 C8.04 127 4.08 127 0 127 C0 85.09 0 43.18 0 0 Z " fill="#01488E" transform="translate(250,107)"/>
<path d="M0 0 C3.81562395 1.29823475 6.07090879 2.74966858 8.8125 5.6875 C11.35584091 8.3301163 13.90471655 10.86056358 16.6875 13.25 C20.32527046 16.38034079 23.85645321 19.61231978 27.375 22.875 C31.18262571 26.40486743 35.00275626 29.91579559 38.875 33.375 C43.13755 37.19324512 47.32320266 41.08862654 51.5 45 C57.27184089 50.40396058 63.09792419 55.73814937 69 61 C75.63949893 66.9192821 82.17719968 72.93611515 88.6472168 79.03979492 C92.32998455 82.49939429 96.08474035 85.80534028 100 89 C98.33248852 92.94139078 95.77289351 95.7892812 93 99 C87.96110229 94.74333738 83.10333507 90.34525875 78.3125 85.8125 C73.5690705 81.34398868 68.81395867 76.89249033 64 72.5 C59.29632778 68.20534276 54.64126232 63.86199022 50 59.5 C44.34274427 54.18411315 38.65330643 48.90761507 32.921875 43.671875 C29.79355944 40.8112228 26.67641138 37.93880741 23.5625 35.0625 C23.0257666 34.5670166 22.4890332 34.0715332 21.93603516 33.56103516 C19.14478946 30.98366521 16.3560845 28.40359795 13.5703125 25.8203125 C12.44277622 24.77596837 11.31517308 23.73169641 10.1875 22.6875 C9.64641602 22.18549072 9.10533203 21.68348145 8.54785156 21.16625977 C4.94755293 17.83792215 1.27635772 14.61482091 -2.51171875 11.5 C-4.18656597 9.81196501 -5.05169654 8.16755077 -6 6 C-4.02 4.02 -2.04 2.04 0 0 Z " fill="#064A8E" transform="translate(75,180)"/>
<path d="M0 0 C4.6305464 8.66083679 9.20111594 17.33882662 13.56103516 26.1394043 C21.52551344 42.14674386 29.85552058 57.98294294 38.20678711 73.79101562 C41.98346632 80.94765416 45.71237722 88.12894277 49.4375 95.3125 C50.04150635 96.47668457 50.6455127 97.64086914 51.26782227 98.84033203 C54.53205303 105.14008067 54.53205303 105.14008067 56 108 C56.55695557 109.06887451 57.11391113 110.13774902 57.68774414 111.23901367 C59 114 59 114 59 116 C57.35546875 117.2890625 57.35546875 117.2890625 55.1875 118.625 C54.47980469 119.07101563 53.77210938 119.51703125 53.04296875 119.9765625 C51 121 51 121 48 121 C47.58372345 120.16522629 47.1674469 119.33045258 46.73855591 118.47038269 C42.77049136 110.51377648 38.80018929 102.55829012 34.82782173 94.60383129 C32.78679952 90.51661943 30.74650512 86.42904799 28.70800781 82.34057617 C16.58931717 57.98516188 16.58931717 57.98516188 4.0010376 33.87051392 C1.26645936 28.76074914 -1.42739279 23.62934447 -4.125 18.5 C-4.69992188 17.41847656 -5.27484375 16.33695313 -5.8671875 15.22265625 C-6.40859375 14.19011719 -6.95 13.15757812 -7.5078125 12.09375 C-7.98879395 11.18302734 -8.46977539 10.27230469 -8.96533203 9.33398438 C-10 7 -10 7 -10 4 C-8.71086513 3.32845067 -7.41859796 2.66291141 -6.125 2 C-5.40570313 1.62875 -4.68640625 1.2575 -3.9453125 0.875 C-2 0 -2 0 0 0 Z " fill="#064A8D" transform="translate(145,132)"/>
<path d="M0 0 C2.24627926 2.24627926 2.72374941 3.66857726 3.72109985 6.65536499 C4.05200119 7.6367897 4.38290253 8.61821442 4.72383118 9.62937927 C5.08131943 10.70994095 5.43880768 11.79050262 5.80712891 12.90380859 C6.18781021 14.03884323 6.56849152 15.17387787 6.96070862 16.3433075 C8.00435481 19.45963584 9.04256074 22.57770992 10.07802248 25.69676542 C11.1621446 28.95924854 12.25211409 32.21977797 13.34115601 35.48062134 C15.16958601 40.95862989 16.9929437 46.43830766 18.81347656 51.91894531 C20.9182285 58.25495759 23.03160047 64.58804499 25.14948905 70.91967714 C26.9671012 76.35435844 28.78002899 81.79058568 30.58905542 87.22813094 C31.66971734 90.47635258 32.75199314 93.72401206 33.83848953 96.97028732 C35.04869044 100.59075776 36.25119384 104.21369448 37.45166016 107.83740234 C37.99396523 109.45217216 37.99396523 109.45217216 38.54722595 111.0995636 C38.87248764 112.08662796 39.19774933 113.07369232 39.53286743 114.09066772 C39.81786921 114.94718115 40.10287098 115.80369457 40.39650917 116.68616295 C41 119 41 119 41 123 C37.37 124.32 33.74 125.64 30 127 C23.15114432 106.71461813 16.52571686 86.36520205 10.03662109 65.96188354 C6.53056613 54.94021392 3.00751207 43.92745864 -0.69140625 32.96875 C-0.97620346 32.12379471 -1.26100067 31.27883942 -1.5544281 30.40827942 C-2.87367695 26.50081056 -4.2027529 22.59706316 -5.54663086 18.69799805 C-6.01041875 17.33387765 -6.47405181 15.9697046 -6.9375 14.60546875 C-7.33839844 13.44168701 -7.73929688 12.27790527 -8.15234375 11.07885742 C-8.94310154 8.20666661 -9.18255975 5.95587753 -9 3 C-6.03 2.01 -3.06 1.02 0 0 Z " fill="#064A8E" transform="translate(181,117)"/>
<path d="M0 0 C0.17681808 1.10071335 0.35363617 2.2014267 0.53581238 3.335495 C2.22488656 13.84878448 3.91573795 24.3617869 5.60821056 34.87452984 C6.47769867 40.27567266 7.3466186 45.67690545 8.21411133 51.07836914 C9.21779517 57.32727104 10.22342006 63.57585827 11.23046875 69.82421875 C11.39393673 70.83910244 11.55740471 71.85398613 11.72582626 72.89962387 C13.92669743 86.54950118 16.18291772 100.18710259 18.61991882 113.79704285 C18.80504532 114.84217545 18.99017181 115.88730804 19.1809082 116.96411133 C19.42053032 118.29385735 19.42053032 118.29385735 19.66499329 119.65046692 C20 122 20 122 20 126 C15.73383684 127.13764351 12.43513689 128 8 128 C5.30288551 114.27467869 3.09832443 100.4793641 0.91796875 86.6640625 C0.73067011 85.47868267 0.54337147 84.29330284 0.35039711 83.07200241 C-0.63587311 76.82614241 -1.61882934 70.57977045 -2.59936523 64.33300781 C-3.61349608 57.87740682 -4.64050389 51.42391943 -5.67012501 44.9707737 C-6.46072934 39.99987416 -7.24146342 35.02746123 -8.01947594 30.05457687 C-8.39407277 27.67203278 -8.77251446 25.29008998 -9.15482521 22.90877151 C-9.6851079 19.60039884 -10.20136017 16.29013216 -10.71411133 12.97900391 C-10.8755513 11.99210068 -11.03699127 11.00519745 -11.20332336 9.98838806 C-11.33927917 9.0916185 -11.47523499 8.19484894 -11.61531067 7.27090454 C-11.73862164 6.48972574 -11.86193262 5.70854694 -11.98898029 4.90369606 C-11.9926168 4.27547636 -11.9962533 3.64725666 -12 3 C-8.6463584 -0.3536416 -4.57608788 0 0 0 Z " fill="#044A8E" transform="translate(222,109)"/>
<path d="M0 0 C3.00027882 1.31192267 4.72344655 2.55195218 6.671875 5.17578125 C7.16308838 5.82812744 7.65430176 6.48047363 8.16040039 7.15258789 C8.9472522 8.22174438 8.9472522 8.22174438 9.75 9.3125 C10.90991594 10.8595552 12.07008377 12.40642157 13.23046875 13.953125 C14.14771729 15.18385742 14.14771729 15.18385742 15.08349609 16.43945312 C17.70497833 19.94188698 20.36260412 23.41615291 23.02001953 26.89135742 C29.00705428 34.72116226 34.94985095 42.58274304 40.8527832 50.47607422 C44.58313886 55.45875903 48.36789703 60.39745373 52.171875 65.32421875 C56.50261633 70.94174515 60.79139541 76.59155484 65.08105469 82.24047852 C68.11055126 86.22637254 71.14623132 90.20436156 74.25 94.1328125 C74.72179687 94.73287109 75.19359375 95.33292969 75.6796875 95.95117188 C76.90589906 97.5057034 78.14012371 99.05390504 79.375 100.6015625 C81 103 81 103 81 106 C79.46875 107.60546875 79.46875 107.60546875 77.5 109.1875 C76.8503125 109.71730469 76.200625 110.24710937 75.53125 110.79296875 C75.0259375 111.19128906 74.520625 111.58960938 74 112 C70.69188988 110.605562 69.04827778 109.11720771 66.96875 106.2109375 C66.411875 105.44265625 65.855 104.674375 65.28125 103.8828125 C64.39953125 102.64144531 64.39953125 102.64144531 63.5 101.375 C62.24024266 99.63233569 60.97981569 97.89015527 59.71875 96.1484375 C59.09097656 95.27670898 58.46320313 94.40498047 57.81640625 93.50683594 C55.25459513 89.97126113 52.63175659 86.48363924 50 83 C45.64544608 77.21793818 41.34512068 71.39799729 37.0625 65.5625 C32.03526511 58.71791762 26.93005064 51.9399641 21.75634766 45.20556641 C16.6284059 38.52909552 11.57724021 31.79671555 6.53662109 25.05419922 C3.77818343 21.36664051 1.0136588 17.68364628 -1.75 14 C-2.76564989 12.645852 -3.78127731 11.29168715 -4.796875 9.9375 C-5.52390625 8.968125 -6.2509375 7.99875 -7 7 C-4.66666667 4.66666667 -2.33333333 2.33333333 0 0 Z " fill="#064A8E" transform="translate(107,153)"/>
<path d="M0 0 C5.76097891 2.77020044 11.12960636 5.85294445 16.5 9.3125 C18.18320353 10.38602874 19.86681696 11.458915 21.55078125 12.53125 C22.43588379 13.09585938 23.32098633 13.66046875 24.23291016 14.2421875 C29.03438099 17.29235426 33.86150093 20.30134958 38.6875 23.3125 C40.73307521 24.58984008 42.7786481 25.86718386 44.82421875 27.14453125 C46.3563501 28.10093506 46.3563501 28.10093506 47.91943359 29.07666016 C53.94235084 32.83704548 59.96302562 36.60102118 65.98339844 40.36547852 C71.06840785 43.54464766 76.15540945 46.7205495 81.24609375 49.890625 C92.9019336 57.1536017 104.50368143 64.48678093 116 72 C114.61702141 75.57770548 113.04383021 78.74845193 111 82 C105.82217271 80.29142118 101.56631989 77.2406979 97.0625 74.25 C95.26364227 73.06806407 93.46413998 71.88710868 91.6640625 70.70703125 C90.26655762 69.78978271 90.26655762 69.78978271 88.84082031 68.85400391 C84.22992304 65.84479508 79.58543041 62.88907546 74.9375 59.9375 C74.01807617 59.35339355 73.09865234 58.76928711 72.15136719 58.16748047 C63.87791691 52.91595533 55.59333333 47.68208807 47.3046875 42.45458984 C45.01454836 41.00918211 42.72580343 39.56159316 40.4375 38.11328125 C38.89587838 37.13794962 37.35421142 36.16268966 35.8125 35.1875 C35.0501001 34.70514893 34.2877002 34.22279785 33.50219727 33.72583008 C28.91674989 30.82908773 24.32026906 27.95082293 19.71484375 25.0859375 C18.64194092 24.41796143 17.56903809 23.74998535 16.46362305 23.06176758 C14.37130237 21.76008756 12.27777513 20.46034433 10.18286133 19.1628418 C4.99066398 15.93211225 -0.07450221 12.62533147 -5 9 C-3.35 6.03 -1.7 3.06 0 0 Z " fill="#064A8E" transform="translate(48,211)"/>
<path d="M0 0 C5.89663397 1.88089089 11.61175473 3.9966929 17.29296875 6.44921875 C18.45039078 6.94350121 18.45039078 6.94350121 19.63119507 7.44776917 C21.28824299 8.15582669 22.94461883 8.86545885 24.60037231 9.57653809 C28.14988014 11.10076437 31.70278291 12.61700017 35.25553894 14.13363647 C37.09848059 14.9203961 38.94126289 15.70752908 40.78388977 16.49502563 C50.03004121 20.4452204 59.29411265 24.35232257 68.5625 28.25 C70.13265206 28.91072041 71.70280181 29.57144629 73.27294922 30.23217773 C80.83027065 33.4113287 88.39036976 36.58379793 95.953125 39.75 C96.66641464 40.04872009 97.37970428 40.34744019 98.11460876 40.6552124 C101.44960201 42.05181607 104.7849881 43.44746028 108.12133789 44.84082031 C114.44865754 47.48839441 120.74551802 50.18447757 127 53 C126.49287967 56.71888239 125.88391785 59.73454239 124 63 C118.91498727 62.30764406 114.48116136 60.21617232 109.8125 58.1953125 C108.89867554 57.80443954 107.98485107 57.41356659 107.04333496 57.010849 C105.06420995 56.16370716 103.08601258 55.31439555 101.10864258 54.46316528 C96.88443349 52.64478642 92.65576824 50.83688136 88.42736816 49.02827454 C86.23239221 48.0892746 84.03765224 47.14972285 81.84313965 46.2096405 C70.74458814 41.45635067 59.62474234 36.75409653 48.5 32.0625 C46.6325675 31.27449748 44.76513585 30.48649294 42.89770508 29.69848633 C27.27522248 23.10828011 11.64172131 16.5444059 -4 10 C-3.52449439 8.51965236 -3.04448784 7.04074979 -2.5625 5.5625 C-2.29566406 4.73878906 -2.02882813 3.91507813 -1.75390625 3.06640625 C-1 1 -1 1 0 0 Z " fill="#05498E" transform="translate(28,245)"/>
<path d="M0 0 C1.45880109 0.14107747 2.91703551 0.28802415 4.375 0.4375 C5.18710937 0.51871094 5.99921875 0.59992188 6.8359375 0.68359375 C9 1 9 1 11 2 C7.41699013 26.83769781 3.60102148 51.63606094 -0.30371094 76.42504883 C-1.10571482 81.51715014 -1.90372199 86.60986967 -2.70080948 91.70274258 C-3.32182617 95.66713905 -3.94519616 99.63116273 -4.56926727 103.59507942 C-4.86511447 105.47645495 -5.16015281 107.35795787 -5.45435333 109.2395916 C-5.86067347 111.83647145 -6.27023706 114.43281925 -6.68066406 117.02905273 C-6.8001239 117.79706711 -6.91958374 118.56508148 -7.04266357 119.35636902 C-7.51784176 122.34397276 -8.04126677 125.12380031 -9 128 C-10.43791516 127.85831863 -11.8753237 127.71148957 -13.3125 127.5625 C-14.51326172 127.44068359 -14.51326172 127.44068359 -15.73828125 127.31640625 C-18 127 -18 127 -21 126 C-16.98124883 100.30952905 -12.847836 74.63919664 -8.62084961 48.98217773 C-7.82711905 44.16367309 -7.03688762 39.34460087 -6.24737835 34.52540302 C-5.63054102 30.76346925 -5.01149124 27.00190211 -4.3917942 23.24043846 C-4.09875333 21.45954552 -3.80650458 19.67852204 -3.51508141 17.89736366 C-3.11353558 15.44461373 -2.70890592 12.99239213 -2.3034668 10.5402832 C-2.185578 9.81595596 -2.06768921 9.09162872 -1.94622803 8.34535217 C-1.46648212 5.46079928 -0.92677372 2.78032116 0 0 Z " fill="#03498E" transform="translate(291,109)"/>
<path d="M0 0 C6.89653216 0.60885887 13.36134044 1.91672775 20.06494141 3.62036133 C21.13456116 3.88718216 22.20418091 4.15400299 23.30621338 4.4289093 C26.82276876 5.30764629 30.33715719 6.19473798 33.8515625 7.08203125 C36.31371189 7.69926813 38.77598407 8.31601541 41.2383728 8.93229675 C46.39532455 10.22420057 51.55135247 11.51969572 56.70654297 12.81860352 C63.92669232 14.63778983 71.14883382 16.44896298 78.37137341 18.2586323 C84.03185387 19.67726823 89.69172098 21.0983488 95.3515625 22.51953125 C96.53812061 22.81739847 97.72467873 23.11526569 98.94719315 23.42215919 C111.32118405 26.53065664 123.68839349 29.65158345 136 33 C135.01 37.95 135.01 37.95 134 43 C126.07868644 42.31856944 118.52584131 40.20732497 110.859375 38.203125 C109.35215675 37.81320667 107.84480901 37.42378861 106.33734131 37.03483582 C102.30637125 35.99366546 98.27688151 34.94687394 94.24765015 33.89899826 C87.55506427 32.15997304 80.85977822 30.43135032 74.16455078 28.702528 C72.47920044 28.26732439 70.79389784 27.83193586 69.10864258 27.39636421 C57.95567073 24.51465481 46.79235593 21.68093454 35.609375 18.91796875 C34.38418152 18.61486786 33.15898804 18.31176697 31.89666748 17.9994812 C26.23782795 16.6014711 20.57687955 15.21275584 14.91308594 13.83496094 C12.93159046 13.34720896 10.95014198 12.85926598 8.96875 12.37109375 C8.07653748 12.15736618 7.18432495 11.94363861 6.26507568 11.72343445 C0.22668038 10.22668038 0.22668038 10.22668038 -2 8 C-1.6574589 5.24862148 -0.77186529 2.6586471 0 0 Z " fill="#03498F" transform="translate(14,281)"/>
<path d="M0 0 C6.93359375 1.3671875 6.93359375 1.3671875 9 2 C10.28993182 4.57986364 9.79471177 5.24118254 8.89868164 7.93164062 C8.62931793 8.75300507 8.35995422 9.57436951 8.08242798 10.42062378 C7.77807831 11.32338043 7.47372864 12.22613708 7.16015625 13.15625 C6.84694427 14.10549347 6.5337323 15.05473694 6.21102905 16.03274536 C5.52756987 18.10176327 4.84077201 20.16968053 4.15109253 22.2366333 C2.29659908 27.79600653 0.46697463 33.36358097 -1.3671875 38.9296875 C-1.74853348 40.08447601 -2.12987946 41.23926453 -2.52278137 42.42904663 C-6.25803343 53.74965149 -9.91566572 65.09455148 -13.54666138 76.44897461 C-14.53118924 79.52710672 -15.51832455 82.60439378 -16.50561523 85.68164062 C-20.79640698 99.08339702 -24.93919834 112.52683726 -29 126 C-30.62566606 125.52309796 -32.25051311 125.04340334 -33.875 124.5625 C-34.77992188 124.29566406 -35.68484375 124.02882813 -36.6171875 123.75390625 C-39 123 -39 123 -41 122 C-38.83582995 114.61157926 -36.48149181 107.2980966 -34.04296875 99.99609375 C-33.66313339 98.85522308 -33.28329803 97.71435242 -32.89195251 96.53890991 C-31.65893462 92.83783708 -30.42342319 89.13760358 -29.1875 85.4375 C-28.76173531 84.16158507 -28.33601531 82.88565523 -27.91033936 81.60971069 C-22.36602004 64.99339058 -16.78655816 48.38930111 -11.125 31.8125 C-10.84490082 30.99175995 -10.56480164 30.1710199 -10.2762146 29.32540894 C-6.92781305 19.52201188 -3.51378745 9.74543774 0 0 Z " fill="#044A8E" transform="translate(331,118)"/>
<path d="M0 0 C3.95820859 0.56545837 6.6659053 1.80902348 10 4 C4.16656395 15.73063103 -1.76638127 27.4078407 -7.75 39.0625 C-8.40680252 40.34300735 -8.40680252 40.34300735 -9.07687378 41.64938354 C-14.66140168 52.53665182 -20.28103079 63.40374062 -25.96679688 74.23852539 C-29.78061101 81.52719343 -33.4566871 88.88096423 -37.11474609 96.2487793 C-40.92976477 103.91321781 -44.91123522 111.47854731 -49 119 C-54.04250428 119 -55.77905653 117.59750368 -60 115 C-58.59533971 111.33162752 -56.96995639 107.86636047 -55.1640625 104.37890625 C-54.31920288 102.74622803 -54.31920288 102.74622803 -53.45727539 101.08056641 C-52.55029907 99.33912354 -52.55029907 99.33912354 -51.625 97.5625 C-51.15681351 96.66105255 -51.15681351 96.66105255 -50.6791687 95.74139404 C-46.10133211 86.92962328 -41.40430888 78.18941016 -36.61181641 69.49243164 C-32.1080096 61.28191917 -27.82096585 52.96429298 -23.54208374 44.63540649 C-18.80793292 35.425458 -13.95938334 26.28688409 -8.94335938 17.2265625 C-5.81044105 11.55575494 -2.85567726 5.81537946 0 0 Z " fill="#064A8E" transform="translate(368,133)"/>
<path d="M0 0 C10.88201157 -0.3045482 21.60211385 0.84325072 32.421875 1.86328125 C34.52903423 2.0582968 36.63623318 2.25288367 38.74346924 2.44706726 C44.28855074 2.95928765 49.83304367 3.47763034 55.37744141 3.99719238 C60.91011562 4.51445377 66.44337317 5.0253935 71.9765625 5.53710938 C94.65624992 7.63764466 117.33211079 9.77552889 140 12 C139.67 15.3 139.34 18.6 139 22 C124.73521644 21.44715951 110.58201828 20.42288764 96.37890625 19.00390625 C94.37658767 18.80786864 92.37422135 18.61231814 90.37181091 18.41722107 C85.15712953 17.90796205 79.9430624 17.39267786 74.72912598 16.87585449 C68.43614503 16.25313054 62.14249026 15.637262 55.84889889 15.02074337 C50.94347115 14.54013396 46.03815312 14.05850575 41.13319397 13.57313538 C39.32261039 13.39444943 37.51201788 13.21585403 35.70141602 13.03735352 C34.82986657 12.95117547 33.95831713 12.86499743 33.06035709 12.77620792 C28.32864942 12.31222176 23.59570301 11.87197528 18.85934448 11.45797729 C17.34634089 11.32491007 17.34634089 11.32491007 15.80277157 11.18915462 C13.86166733 11.01969407 11.92028619 10.85336764 9.97860813 10.69061375 C9.10809283 10.61461413 8.23757753 10.53861452 7.34068298 10.46031189 C6.57317183 10.39530959 5.80566069 10.33030729 5.01489162 10.26333523 C3 10 3 10 0 9 C0 6.03 0 3.06 0 0 Z " fill="#04498E" transform="translate(7,318)"/>
<path d="M0 0 C2.9719385 1.12451727 5.33440687 2.22293791 8 4 C6.74026077 6.65551005 5.37832918 8.98893353 3.6015625 11.328125 C2.89193359 12.26785156 2.89193359 12.26785156 2.16796875 13.2265625 C1.65878906 13.89429688 1.14960938 14.56203125 0.625 15.25 C-0.46623078 16.69264408 -1.55737421 18.13535424 -2.6484375 19.578125 C-3.2062793 20.31353516 -3.76412109 21.04894531 -4.33886719 21.80664062 C-6.9050797 25.19506702 -9.45218867 28.59772948 -12 32 C-14.9736875 35.96701127 -17.94878503 39.93293776 -20.9296875 43.89453125 C-26.92902987 51.87238014 -32.87507562 59.88735176 -38.78637695 67.93066406 C-42.98911215 73.6439291 -47.2368669 79.32133321 -51.51147461 84.98095703 C-54.23180442 88.59682179 -56.90216855 92.24292395 -59.53125 95.92578125 C-60.120271 96.75005615 -60.70929199 97.57433105 -61.31616211 98.42358398 C-62.4571235 100.02520475 -63.59356138 101.63006025 -64.72485352 103.23852539 C-65.23975342 103.96160889 -65.75465332 104.68469238 -66.28515625 105.4296875 C-66.73769775 106.07147949 -67.19023926 106.71327148 -67.65649414 107.37451172 C-69 109 -69 109 -72 111 C-74.31 109.02 -76.62 107.04 -79 105 C-77.63377254 101.03512341 -75.8511212 98.35798894 -73.125 95.1875 C-69.41838945 90.76196022 -65.8817729 86.25723215 -62.4375 81.625 C-57.72925312 75.30084193 -52.97427564 69.01495132 -48.1875 62.75 C-42.87867486 55.79873533 -37.60897318 48.82027304 -32.375 41.8125 C-26.95739574 34.56243936 -21.44985667 27.38956796 -15.87353516 20.26098633 C-11.72924096 14.95846405 -7.67115997 9.60006612 -3.671875 4.1875 C-2 2 -2 2 0 0 Z " fill="#07498B" transform="translate(404,154)"/>
<path d="M0 0 C1.98 1.65 3.96 3.3 6 5 C2.77390536 12.52189434 -4.81068991 17.90140626 -10.90234375 23.12109375 C-13.364259 25.32627296 -15.6772364 27.64886677 -18 30 C-20.89591958 32.93118191 -23.80242571 35.76403174 -26.9375 38.4375 C-30.28925119 41.30172374 -33.40556078 44.36334469 -36.5 47.5 C-39.55337618 50.59491872 -42.62323708 53.61934297 -45.9375 56.4375 C-49.99654291 59.896438 -53.71728898 63.65835029 -57.43725586 67.47436523 C-60.12656239 70.21116504 -62.88428412 72.79382688 -65.796875 75.29296875 C-71.39305116 80.13171764 -76.4829706 85.47086932 -81.640625 90.76757812 C-82.40375 91.54166016 -83.166875 92.31574219 -83.953125 93.11328125 C-84.63536133 93.81235596 -85.31759766 94.51143066 -86.02050781 95.23168945 C-87.9373618 96.94404434 -89.65316812 97.98301765 -92 99 C-97.01023672 93.62316059 -97.01023672 93.62316059 -96.96875 91.09765625 C-95.55790915 88.0427307 -93.4645285 86.40162591 -90.9375 84.1875 C-89.83491154 83.20688152 -88.73340487 82.22504576 -87.6328125 81.2421875 C-87.04274414 80.71850586 -86.45267578 80.19482422 -85.84472656 79.65527344 C-82.6182938 76.7601948 -79.46851067 73.78388967 -76.3125 70.8125 C-75.30497681 69.86636841 -75.30497681 69.86636841 -74.27709961 68.90112305 C-68.6336909 63.60115093 -62.99769335 58.29328529 -57.36108398 52.98608398 C-50.57088503 46.59352679 -43.77089251 40.21148361 -36.96289062 33.83789062 C-35.6435492 32.60256696 -34.32454404 31.36688408 -33.00585938 30.13085938 C-25.40587083 23.00820083 -17.77120654 15.93628352 -10 9 C-8.12435694 7.31321479 -6.24934811 5.62572404 -4.375 3.9375 C-2.91666667 2.625 -1.45833333 1.3125 0 0 Z " fill="#06498C" transform="translate(436,180)"/>
<path d="M0 0 C4 4.625 4 4.625 4 8 C2.07006836 9.57128906 2.07006836 9.57128906 -0.66015625 11.265625 C-1.66941162 11.90040771 -2.67866699 12.53519043 -3.71850586 13.18920898 C-5.37378296 14.20930054 -5.37378296 14.20930054 -7.0625 15.25 C-8.20855819 15.96756397 -9.35381264 16.68641311 -10.49829102 17.40649414 C-12.26262479 18.51639828 -14.02739276 19.62552796 -15.79460144 20.73085022 C-21.38809821 24.22995026 -26.91887835 27.82154991 -32.4375 31.4375 C-33.37110352 32.04770996 -34.30470703 32.65791992 -35.26660156 33.28662109 C-37.18753088 34.54226092 -39.10810021 35.79845163 -41.02832031 37.05517578 C-44.11967644 39.07832258 -47.21207217 41.09987238 -50.3046875 43.12109375 C-54.6502877 45.9614024 -58.99529896 48.80260853 -63.33984375 51.64453125 C-67.30780375 54.23993755 -71.27650646 56.83419549 -75.2464447 59.42657471 C-77.56587465 60.94119104 -79.88503822 62.456215 -82.20419312 63.97125244 C-83.81011215 65.02012005 -85.41640087 66.06842158 -87.02270508 67.11669922 C-88.52353638 68.09727295 -88.52353638 68.09727295 -90.0546875 69.09765625 C-91.02760742 69.73203613 -92.00052734 70.36641602 -93.00292969 71.02001953 C-95.12239303 72.42021892 -97.22479544 73.83388547 -99.31738281 75.27294922 C-100.39084961 76.00658691 -101.46431641 76.74022461 -102.5703125 77.49609375 C-103.53984863 78.16697021 -104.50938477 78.83784668 -105.50830078 79.52905273 C-108 81 -108 81 -111 81 C-114 75.25 -114 75.25 -114 73 C-112.25024414 71.66235352 -112.25024414 71.66235352 -109.78515625 70.12890625 C-108.88023437 69.56042969 -107.9753125 68.99195313 -107.04296875 68.40625 C-106.05941406 67.7978125 -105.07585937 67.189375 -104.0625 66.5625 C-102.02177698 65.28312365 -99.98141555 64.00317035 -97.94140625 62.72265625 C-96.9270752 62.08859863 -95.91274414 61.45454102 -94.86767578 60.80126953 C-91.05341721 58.40542416 -87.27382747 55.95883893 -83.5 53.5 C-76.26656693 48.80289811 -68.99449049 44.16804585 -61.71484375 39.54296875 C-53.58484479 34.37644947 -45.47120776 29.18464977 -37.36010742 23.98852539 C-29.27764898 18.81270034 -21.18293086 13.65638757 -13.078125 8.515625 C-8.68465698 5.72526974 -4.31534265 2.90985462 0 0 Z " fill="#084688" transform="translate(463,211)"/>
<path d="M0 0 C0.33 2.31 0.66 4.62 1 7 C-1.72509345 8.16789719 -4.45018903 9.33578939 -7.17529297 10.50366211 C-9.64700621 11.56299148 -12.11868991 12.6223895 -14.59033203 13.68188477 C-20.87029256 16.37373648 -27.15056918 19.06484204 -33.43212891 21.75296021 C-48.11316274 28.03563994 -62.78870651 34.3299574 -77.4375 40.6875 C-86.8367212 44.76472464 -96.23621241 48.84128067 -105.6477356 52.89004517 C-107.44743058 53.6648673 -109.24607064 54.44213829 -111.04467773 55.21948242 C-112.67771851 55.9210144 -112.67771851 55.9210144 -114.34375 56.63671875 C-115.29443359 57.04623779 -116.24511719 57.45575684 -117.22460938 57.87768555 C-120.1152302 59.04659687 -123.0327298 60.04439666 -126 61 C-126.66 59.02 -127.32 57.04 -128 55 C-117.14010483 49.35000951 -106.03200613 44.48694457 -94.75 39.75 C-92.95790376 38.99344039 -91.16599504 38.23643647 -89.37426758 37.47900391 C-85.01810012 35.63849485 -80.65997855 33.80267323 -76.30108643 31.96862793 C-71.09402557 29.77674825 -65.89083326 27.5757111 -60.6875 25.375 C-59.70418701 24.95943848 -58.72087402 24.54387695 -57.70776367 24.11572266 C-49.09762101 20.47331531 -40.49864897 16.80490034 -31.90371704 13.12677002 C-30.36822234 12.46975594 -28.83256307 11.81312635 -27.29672241 11.15692139 C-25.13606068 10.23351067 -22.97601346 9.3086866 -20.81640625 8.3828125 C-20.13698471 8.09163544 -19.45756317 7.80045837 -18.7575531 7.50045776 C-13.80372328 5.3681823 -8.89818622 3.14253965 -4.01928711 0.84326172 C-2 0 -2 0 0 0 Z " fill="#094386" transform="translate(485,245)"/>
<path d="M0 0 C0.33 1.65 0.66 3.3 1 5 C-30.07379475 12.83945827 -61.18468863 20.5230277 -92.31699371 28.12638855 C-95.13253471 28.81434104 -97.94785626 29.50318505 -100.76312256 30.19226074 C-105.23391457 31.28638258 -109.70529215 32.378078 -114.17714691 33.46784782 C-115.84699699 33.87512614 -117.51666184 34.28316469 -119.18613434 34.69198799 C-121.4804995 35.25362081 -123.77554597 35.81237723 -126.07080078 36.37036133 C-126.74878157 36.53697895 -127.42676235 36.70359657 -128.12528801 36.87526321 C-132.77155876 38 -132.77155876 38 -135 38 C-135.33 36.02 -135.66 34.04 -136 32 C-104.84610195 24.28870731 -73.6753258 16.67552619 -42.42749023 9.3527832 C-40.27846115 8.84856346 -38.12945343 8.3442527 -35.98046875 7.83984375 C-34.45098854 7.48159264 -34.45098854 7.48159264 -32.89060974 7.11610413 C-25.2964057 5.32869732 -17.72691043 3.45139392 -10.17948914 1.47532654 C-6.6449167 0.56789342 -3.67360296 0 0 0 Z " fill="#063E83" transform="translate(498,283)"/>
<path d="M0 0 C0 0.99 0 1.98 0 3 C-4.47946789 4.03840377 -8.97197959 4.38036261 -13.54589844 4.70849609 C-14.3976062 4.77209824 -15.24931396 4.83570038 -16.12683105 4.90122986 C-18.95413407 5.11160732 -21.78174312 5.31753124 -24.609375 5.5234375 C-26.61153105 5.67149527 -28.61366693 5.8198261 -30.61578369 5.96841431 C-35.91976095 6.36129315 -41.22400885 6.7503958 -46.52832031 7.13873291 C-51.76123648 7.52249728 -56.99388717 7.90984318 -62.2265625 8.296875 C-74.48402602 9.20268537 -86.74195065 10.10215668 -99 11 C-100.01617401 11.07444839 -101.03234802 11.14889679 -102.07931519 11.2256012 C-114.71945209 12.15165135 -127.35967407 13.07653363 -140 14 C-140 12.68 -140 11.36 -140 10 C-68.30890451 4.20256299 -68.30890451 4.20256299 -37.42486572 1.88269043 C-35.16023356 1.71229717 -32.89570455 1.54052669 -30.63128662 1.36730957 C-27.50448996 1.12867992 -24.37733485 0.89551824 -21.25 0.6640625 C-20.36361847 0.59561127 -19.47723694 0.52716003 -18.56399536 0.45663452 C-12.36829854 0.00767744 -6.21072936 -0.07087124 0 0 Z " fill="#05397F" transform="translate(505,322)"/>
<path d="M0 0 C0.99 0 1.98 0 3 0 C3 0.66 3 1.32 3 2 C4.36125 1.4740625 4.36125 1.4740625 5.75 0.9375 C8.87758436 0.03531221 10.05208081 -0.13381507 13 1 C13 1.66 13 2.32 13 3 C14.32 3.33 15.64 3.66 17 4 C17 4.66 17 5.32 17 6 C18.32 6 19.64 6 21 6 C24.67624418 6.61270736 27.7173482 8.28406837 31 10 C31 11.32 31 12.64 31 14 C28 15 28 15 25.875 14.125 C24 13 24 13 23 12 C21.906875 12 20.81375 12 19.6875 12 C16.66671153 12 14.81586696 11.79128044 12 11 C5.60613709 9.25549468 5.60613709 9.25549468 -1 9 C-2.0625 7.125 -2.0625 7.125 -3 5 C-2.67 4.34 -2.34 3.68 -2 3 C-1.01 3 -0.02 3 1 3 C0.67 2.01 0.34 1.02 0 0 Z " fill="#034E93" transform="translate(90,301)"/>
<path d="M0 0 C-1.73356739 2.16965981 -2.69126332 2.93537005 -5.44877625 3.51261902 C-6.4191835 3.57701675 -7.38959076 3.64141449 -8.3894043 3.70776367 C-9.49031906 3.78762009 -10.59123383 3.8674765 -11.72550964 3.94975281 C-12.91308365 4.02176407 -14.10065765 4.09377533 -15.32421875 4.16796875 C-16.54075638 4.25250809 -17.75729401 4.33704742 -19.01069641 4.42414856 C-22.90221176 4.69157774 -26.79468721 4.93974721 -30.6875 5.1875 C-33.32365336 5.36527091 -35.95972275 5.54429161 -38.59570312 5.72460938 C-45.06289717 6.16425446 -51.53098364 6.58808753 -58 7 C-58 5.68 -58 4.36 -58 3 C-51.34828732 2.39893187 -44.69539131 1.81257502 -38.04150391 1.23608398 C-35.78144484 1.03856703 -33.52166958 0.83777252 -31.26220703 0.63354492 C-28.00103037 0.33936291 -24.73899066 0.05726307 -21.4765625 -0.22265625 C-19.97906967 -0.36164085 -19.97906967 -0.36164085 -18.45132446 -0.50343323 C-12.16093357 -1.02853959 -6.25416241 -0.86266338 0 0 Z " fill="#084086" transform="translate(423,329)"/>
<path d="M0 0 C5.6555181 0.60503854 11.00213991 1.62185703 16.5 3.0625 C17.59054688 3.3419043 17.59054688 3.3419043 18.703125 3.62695312 C20.46987724 4.08026455 22.23510775 4.5395002 24 5 C24 5.66 24 6.32 24 7 C23.34 7.33 22.68 7.66 22 8 C21.27840576 9.64363134 20.60648579 11.31050386 20 13 C22.475 13.99 22.475 13.99 25 15 C20.89980232 16.674402 17.23294551 15.2635772 13.171875 14.12890625 C12.42286926 13.9277269 11.67386353 13.72654755 10.90216064 13.51927185 C8.51556091 12.87602056 6.13285651 12.21946699 3.75 11.5625 C2.13044728 11.12346657 0.5106579 10.68530515 -1.109375 10.24804688 C-5.07573151 9.17545564 -9.03864781 8.09092173 -13 7 C-9.43949604 5.99297436 -6.9723677 6.13329892 -3.3125 6.8125 C-2.33925781 6.98394531 -1.36601563 7.15539062 -0.36328125 7.33203125 C0.80654297 7.66267578 0.80654297 7.66267578 2 8 C2.33 8.66 2.66 9.32 3 10 C3.928125 9.835 4.85625 9.67 5.8125 9.5 C9 9 9 9 12 9 C11.67 9.66 11.34 10.32 11 11 C13.31 11.33 15.62 11.66 18 12 C17.96877057 10.03243548 17.96877057 10.03243548 17 8 C14.08333333 6.75 14.08333333 6.75 11 6 C10.34 5.67 9.68 5.34 9 5 C8.34 5.66 7.68 6.32 7 7 C7 6.34 7 5.68 7 5 C5.68 4.67 4.36 4.34 3 4 C3 3.34 3 2.68 3 2 C2.01 1.34 1.02 0.68 0 0 Z " fill="#074286" transform="translate(103,303)"/>
<path d="M0 0 C1.75128818 0.28382946 3.50100003 0.57739529 5.25 0.875 C6.71179688 1.11863281 6.71179688 1.11863281 8.203125 1.3671875 C10.77264117 1.94855848 12.72071056 2.70840265 15 4 C12.69 4 10.38 4 8 4 C8 4.99 8 5.98 8 7 C9.65 6.34 11.3 5.68 13 5 C12.67 6.65 12.34 8.3 12 10 C14.475 10.99 14.475 10.99 17 12 C17.33 11.34 17.66 10.68 18 10 C18.66 10.66 19.32 11.32 20 12 C22.06874034 12.6425235 22.06874034 12.6425235 24 13 C24 13.99 24 14.98 24 16 C15.15301274 14.60213923 6.61638292 12.39537771 -2 10 C-2 9.67 -2 9.34 -2 9 C0.31 8.34 2.62 7.68 5 7 C4.81171228 4.55519921 4.81171228 4.55519921 4 2 C2.00613134 0.81531734 2.00613134 0.81531734 0 0 Z " fill="#074689" transform="translate(64,293)"/>
<path d="M0 0 C0.66 0 1.32 0 2 0 C2 0.66 2 1.32 2 2 C2.66 2 3.32 2 4 2 C4.5625 3.9375 4.5625 3.9375 5 6 C4.67 6.33 4.34 6.66 4 7 C3.95615553 8.66608987 3.9603287 10.33380554 4 12 C4 12.99 4 13.98 4 15 C3.01 15.66 2.02 16.32 1 17 C0.34 16.01 -0.32 15.02 -1 14 C-1.99 14.33 -2.98 14.66 -4 15 C-5.125 8.375 -5.125 8.375 -4 5 C-4.66 5 -5.32 5 -6 5 C-5.67 3.68 -5.34 2.36 -5 1 C-3.35 1.33 -1.7 1.66 0 2 C0 1.34 0 0.68 0 0 Z " fill="#044F94" transform="translate(193,159)"/>
<path d="M0 0 C3.5 0.3125 3.5 0.3125 7 1 C7.33 1.66 7.66 2.32 8 3 C8.99 3 9.98 3 11 3 C11 4.32 11 5.64 11 7 C11.66 7.33 12.32 7.66 13 8 C12.814375 8.61875 12.62875 9.2375 12.4375 9.875 C11.76313824 12.04160178 11.76313824 12.04160178 13 14 C11.1875 15.0625 11.1875 15.0625 9 16 C5.49890916 14.83296972 4.76015131 14.1850357 3 11 C3.020625 9.824375 3.04125 8.64875 3.0625 7.4375 C3.40312307 3.93467797 3.40312307 3.93467797 1 2.0625 C0.34 1.711875 -0.32 1.36125 -1 1 C-0.67 0.67 -0.34 0.34 0 0 Z " fill="#044D92" transform="translate(127,189)"/>
<path d="M0 0 C1.48117801 0.28127421 2.95993249 0.57533732 4.4375 0.875 C5.67306641 1.11863281 5.67306641 1.11863281 6.93359375 1.3671875 C7.61550781 1.57601562 8.29742187 1.78484375 9 2 C10 4 10 4 9.44140625 6.1640625 C9.15136719 6.97617188 8.86132812 7.78828125 8.5625 8.625 C8.27503906 9.44226563 7.98757813 10.25953125 7.69140625 11.1015625 C7.46324219 11.72804687 7.23507812 12.35453125 7 13 C6.401875 12.34 5.80375 11.68 5.1875 11 C3.12498166 8.6626154 3.12498166 8.6626154 0 9 C-1.96189209 12.6678852 -3.39301257 15.87248551 -4 20 C-4.66 20 -5.32 20 -6 20 C-4.63125844 13.04223041 -2.5466871 6.61396893 0 0 Z " fill="#054C90" transform="translate(331,118)"/>
<path d="M0 0 C0.33 0.66 0.66 1.32 1 2 C0.67 2.66 0.34 3.32 0 4 C0.66 4 1.32 4 2 4 C2 5.32 2 6.64 2 8 C3.32 8.33 4.64 8.66 6 9 C4.73058503 12.91402949 3.48832306 14.79072873 0 17 C-2.31 15.02 -4.62 13.04 -7 11 C-5.5140084 6.40693504 -3.14985318 3.56430755 0 0 Z " fill="#06488B" transform="translate(332,248)"/>
<path d="M0 0 C3.91402949 1.26941497 5.79072873 2.51167694 8 6 C6.35 6.66 4.7 7.32 3 8 C2.67 10.31 2.34 12.62 2 15 C0.82174642 14.09827532 -0.34231577 13.17798498 -1.5 12.25 C-2.1496875 11.73953125 -2.799375 11.2290625 -3.46875 10.703125 C-5 9 -5 9 -5 5 C-2.5 2.25 -2.5 2.25 0 0 Z " fill="#0E4F8C" transform="translate(75,180)"/>
<path d="M0 0 C-0.25620684 1.6065676 -0.53055871 3.2102483 -0.8125 4.8125 C-0.96332031 5.70582031 -1.11414063 6.59914062 -1.26953125 7.51953125 C-2.06266226 10.21278362 -2.73935795 11.35992636 -5 13 C-7.6875 12.6875 -7.6875 12.6875 -10 12 C-9.67 10.35 -9.34 8.7 -9 7 C-9.66 7 -10.32 7 -11 7 C-10.67 5.68 -10.34 4.36 -10 3 C-9.34 3 -8.68 3 -8 3 C-7.67 2.01 -7.34 1.02 -7 0 C-3.86650268 -1.04449911 -3.01031744 -0.93423645 0 0 Z " fill="#045093" transform="translate(343,245)"/>
<path d="M0 0 C-0.6015625 1.88671875 -0.6015625 1.88671875 -2 4 C-4.8984375 5.08203125 -4.8984375 5.08203125 -8.375 5.8125 C-9.51710938 6.06644531 -10.65921875 6.32039063 -11.8359375 6.58203125 C-14.69852832 6.96017596 -16.32841124 6.96729938 -19 6 C-19 5.34 -19 4.68 -19 4 C-18.34 4 -17.68 4 -17 4 C-17 3.34 -17 2.68 -17 2 C-6.66033755 -2.57331224 -6.66033755 -2.57331224 0 0 Z " fill="#084489" transform="translate(400,309)"/>
<path d="M0 0 C4 0 4 0 5.8125 1.4375 C7.62067649 5.33935452 6.73429774 8.8596224 6 13 C4 13 2 13 0 13 C-0.33 11.02 -0.66 9.04 -1 7 C-1.66 7 -2.32 7 -3 7 C-2.38722388 4.03824877 -1.74627478 2.61941217 0 0 Z M1 14 C4 15 4 15 4 15 Z " fill="#044E93" transform="translate(141,135)"/>
<path d="M0 0 C0.66 0.99 1.32 1.98 2 3 C1.67 3.66 1.34 4.32 1 5 C1.66 5 2.32 5 3 5 C3 5.66 3 6.32 3 7 C2.01 7.495 2.01 7.495 1 8 C1.33 8.66 1.66 9.32 2 10 C-1.83325617 12.70582788 -4.32538149 13.32613618 -9 13 C-9.33 12.01 -9.66 11.02 -10 10 C-9.525625 9.566875 -9.05125 9.13375 -8.5625 8.6875 C-6.76313043 6.97690387 -6.76313043 6.97690387 -6 4 C-4.04402816 2.60287726 -2.04563599 1.26220093 0 0 Z " fill="#094D91" transform="translate(422,237)"/>
<path d="M0 0 C0.66 1.32 1.32 2.64 2 4 C2.99 3.67 3.98 3.34 5 3 C5.33 2.34 5.66 1.68 6 1 C7.32 1.33 8.64 1.66 10 2 C8.9318153 7.11365014 7.76892524 12.07227969 6 17 C4.875 15.25 4.875 15.25 4 13 C4.875 10.75 4.875 10.75 6 9 C4.35 8.67 2.7 8.34 1 8 C1 8.66 1 9.32 1 10 C-0.32 10.33 -1.64 10.66 -3 11 C-2.69078116 9.54096742 -2.37751201 8.08279278 -2.0625 6.625 C-1.88847656 5.81289062 -1.71445312 5.00078125 -1.53515625 4.1640625 C-1 2 -1 2 0 0 Z " fill="#044285" transform="translate(324,139)"/>
<path d="M0 0 C1.33333333 0.66666667 2.66666667 1.33333333 4 2 C4.66 1.67 5.32 1.34 6 1 C7.125 4.75 7.125 4.75 6 7 C6.66 7 7.32 7 8 7 C8.33 6.34 8.66 5.68 9 5 C9 6.98 9 8.96 9 11 C8.01 11 7.02 11 6 11 C6 11.66 6 12.32 6 13 C5.01 13 4.02 13 3 13 C1.61328125 11.390625 1.61328125 11.390625 0.3125 9.25 C-0.12449219 8.55390625 -0.56148437 7.8578125 -1.01171875 7.140625 C-2 5 -2 5 -2 1 C-1.34 0.67 -0.68 0.34 0 0 Z " fill="#024F94" transform="translate(156,168)"/>
<path d="M0 0 C0.625 1.875 0.625 1.875 1 4 C0.34 4.66 -0.32 5.32 -1 6 C-1 7.32 -1 8.64 -1 10 C-5.75 8.125 -5.75 8.125 -8 7 C-8.99 7.33 -9.98 7.66 -11 8 C-11.33 6.35 -11.66 4.7 -12 3 C-7.77050005 0.58314288 -4.87664009 -0.34833144 0 0 Z " fill="#055195" transform="translate(49,253)"/>
<path d="M0 0 C2.9375 0.9375 2.9375 0.9375 4.3125 3.5 C4.51875 4.304375 4.725 5.10875 4.9375 5.9375 C1.93309979 7.94043347 0.22756055 8.43021626 -3.25 9.0625 C-4.15105469 9.23007813 -5.05210937 9.39765625 -5.98046875 9.5703125 C-6.66753906 9.69148437 -7.35460937 9.81265625 -8.0625 9.9375 C-8.7225 8.9475 -9.3825 7.9575 -10.0625 6.9375 C-8.7425 6.2775 -7.4225 5.6175 -6.0625 4.9375 C-6.0625 3.9475 -6.0625 2.9575 -6.0625 1.9375 C-3.0625 -0.0625 -3.0625 -0.0625 0 0 Z " fill="#094E91" transform="translate(439.0625,228.0625)"/>
<path d="M0 0 C0.66 0 1.32 0 2 0 C2 0.99 2 1.98 2 3 C2.99 3.66 3.98 4.32 5 5 C4.67 7.31 4.34 9.62 4 12 C4.66 12 5.32 12 6 12 C4.60804085 14.7839183 2.84424221 14.97898997 0 16 C0.33 14.02 0.66 12.04 1 10 C0.01 10 -0.98 10 -2 10 C-3.75 8.1875 -3.75 8.1875 -5 6 C-4.67 5.01 -4.34 4.02 -4 3 C-3.01 3 -2.02 3 -1 3 C-0.67 2.01 -0.34 1.02 0 0 Z " fill="#044E95" transform="translate(145,204)"/>
<path d="M0 0 C4.30574422 0.61510632 5.98445076 1.59067046 10 4 C7.69 8.62 5.38 13.24 3 18 C2.67 18 2.34 18 2 18 C2 16.35 2 14.7 2 13 C2.66 13 3.32 13 4 13 C3.67 10.03 3.34 7.06 3 4 C2.01 4.99 1.02 5.98 0 7 C-0.66 6.67 -1.32 6.34 -2 6 C-1.34 4.02 -0.68 2.04 0 0 Z " fill="#0B407F" transform="translate(368,133)"/>
<path d="M0 0 C2.64 0.33 5.28 0.66 8 1 C8 1.66 8 2.32 8 3 C7.34 3 6.68 3 6 3 C5.5359375 3.928125 5.5359375 3.928125 5.0625 4.875 C4.375 6.25 3.6875 7.625 3 9 C4.98 9 6.96 9 9 9 C9 9.66 9 10.32 9 11 C11.97 11.495 11.97 11.495 15 12 C11.1280483 13.29065057 8.55767399 12.22324098 4.8125 11.0625 C4.15830078 10.86720703 3.50410156 10.67191406 2.83007812 10.47070312 C1.21772593 9.98817437 -0.39146289 9.49509795 -2 9 C-1.34 6.03 -0.68 3.06 0 0 Z " fill="#044084" transform="translate(14,281)"/>
<path d="M0 0 C0 2.62113708 -0.31292445 4.50935112 -1 7 C-1 6.34 -1 5.68 -1 5 C-1.99 5.99 -2.98 6.98 -4 8 C-3.34 8 -2.68 8 -2 8 C-2.165 8.7425 -2.33 9.485 -2.5 10.25 C-3.11925696 13.19006578 -3.11925696 13.19006578 -3 17 C-3.99 17 -4.98 17 -6 17 C-8.25 14.75 -8.25 14.75 -10 12 C-9.83517041 9.02085773 -9.0244027 8.02527916 -6.93359375 5.859375 C-6.10988281 5.16328125 -5.28617187 4.4671875 -4.4375 3.75 C-3.61121094 3.04359375 -2.78492188 2.3371875 -1.93359375 1.609375 C-1.29550781 1.07828125 -0.65742188 0.5471875 0 0 Z " fill="#094085" transform="translate(349,261)"/>
<path d="M0 0 C1.21236328 0.02707031 1.21236328 0.02707031 2.44921875 0.0546875 C3.37154297 0.08949219 3.37154297 0.08949219 4.3125 0.125 C4.3125 1.115 4.3125 2.105 4.3125 3.125 C3.3225 3.125 2.3325 3.125 1.3125 3.125 C1.3125 3.785 1.3125 4.445 1.3125 5.125 C0.6525 5.125 -0.0075 5.125 -0.6875 5.125 C-1.0175 6.445 -1.3475 7.765 -1.6875 9.125 C-3.110625 8.5990625 -3.110625 8.5990625 -4.5625 8.0625 C-7.55810172 6.77473223 -7.55810172 6.77473223 -9.6875 8.125 C-9.6875 7.135 -9.6875 6.145 -9.6875 5.125 C-9.0275 5.125 -8.3675 5.125 -7.6875 5.125 C-7.6875 4.135 -7.6875 3.145 -7.6875 2.125 C-4.48369983 -0.01086678 -3.66810033 -0.10632175 0 0 Z " fill="#085094" transform="translate(401.6875,252.875)"/>
<path d="M0 0 C0 0.33 0 0.66 0 1 C2.97 1.495 2.97 1.495 6 2 C6 2.33 6 2.66 6 3 C-2.91 3.66 -11.82 4.32 -21 5 C-21 3.68 -21 2.36 -21 1 C-13.97360585 0.25194283 -7.06608191 -0.13794954 0 0 Z " fill="#08387D" transform="translate(386,331)"/>
<path d="M0 0 C1.98 1.65 3.96 3.3 6 5 C4.50902342 8.7952131 2.24299151 10.61042731 -1 13 C-1 11.35 -1 9.7 -1 8 C-1.99 7.67 -2.98 7.34 -4 7 C-4.99 6.67 -5.98 6.34 -7 6 C-4.69 4.02 -2.38 2.04 0 0 Z " fill="#0C4884" transform="translate(436,180)"/>
<path d="M0 0 C0.33 0.66 0.66 1.32 1 2 C0.67 2.33 0.34 2.66 0 3 C2.31 3.66 4.62 4.32 7 5 C3.87378374 8.39417765 1.43458973 10.6062718 -3 12 C-4.49821059 8.62902617 -5 6.79557881 -5 3 C-2.5 1.25 -2.5 1.25 0 0 Z " fill="#074181" transform="translate(393,256)"/>
<path d="M0 0 C1.46067199 0.45082469 2.91848032 0.91093537 4.375 1.375 C5.18710938 1.63023437 5.99921875 1.88546875 6.8359375 2.1484375 C9 3 9 3 11 5 C9.68 5 8.36 5 7 5 C6.855625 5.61875 6.71125 6.2375 6.5625 6.875 C6 9 6 9 5 11 C5.66 11.33 6.32 11.66 7 12 C4.44855176 12.93045933 3.25993522 13.08564091 0.640625 12.22265625 C-0.14828125 11.83980469 -0.9371875 11.45695312 -1.75 11.0625 C-2.54921875 10.68222656 -3.3484375 10.30195313 -4.171875 9.91015625 C-4.77515625 9.60980469 -5.3784375 9.30945313 -6 9 C-2.61682513 8.02408417 -0.4342662 8.14143345 3 9 C3 8.34 3 7.68 3 7 C2.34 6.67 1.68 6.34 1 6 C1 4.68 1 3.36 1 2 C0.67 1.34 0.34 0.68 0 0 Z " fill="#074185" transform="translate(139,292)"/>
<path d="M0 0 C0.66 0.33 1.32 0.66 2 1 C1.484375 1.598125 0.96875 2.19625 0.4375 2.8125 C-0.2740625 3.8953125 -0.2740625 3.8953125 -1 5 C-0.67 5.99 -0.34 6.98 0 8 C0.99 8.33 1.98 8.66 3 9 C-0.75 12 -0.75 12 -3 12 C-3.33 12.66 -3.66 13.32 -4 14 C-4 13.34 -4 12.68 -4 12 C-5.32 11.67 -6.64 11.34 -8 11 C-6.68206814 5.33289301 -4.51290803 3.33562767 0 0 Z " fill="#F2F7F7" transform="translate(352,272)"/>
<path d="M0 0 C0.99 0.66 1.98 1.32 3 2 C3 5 3 5 1.46875 6.60546875 C0.8190625 7.12753906 0.169375 7.64960938 -0.5 8.1875 C-1.1496875 8.71730469 -1.799375 9.24710937 -2.46875 9.79296875 C-2.9740625 10.19128906 -3.479375 10.58960938 -4 11 C-7.36748512 9.48052501 -8.60840337 8.47899158 -10 5 C-9.01 4.67 -8.02 4.34 -7 4 C-7 3.34 -7 2.68 -7 2 C-5.35 2.33 -3.7 2.66 -2 3 C-1.34 2.01 -0.68 1.02 0 0 Z " fill="#0C4380" transform="translate(185,254)"/>
<path d="M0 0 C1.98 0.99 3.96 1.98 6 3 C6 3.66 6 4.32 6 5 C4.35 5.33 2.7 5.66 1 6 C1 7.98 1 9.96 1 12 C-2 12 -2 12 -4.1875 10 C-4.785625 9.34 -5.38375 8.68 -6 8 C-5.67 7.01 -5.34 6.02 -5 5 C-4.34 4.67 -3.68 4.34 -3 4 C-3 3.34 -3 2.68 -3 2 C-2.01 2 -1.02 2 0 2 C0 1.34 0 0.68 0 0 Z " fill="#094F93" transform="translate(111,250)"/>
<path d="M0 0 C0 0.66 0 1.32 0 2 C-0.66 2 -1.32 2 -2 2 C-2.33 3.32 -2.66 4.64 -3 6 C-2.34 6 -1.68 6 -1 6 C-1 5.34 -1 4.68 -1 4 C0.65 4 2.3 4 4 4 C3.60196439 6.88575819 3.20990931 7.82189513 0.9375 9.75 C0.298125 10.1625 -0.34125 10.575 -1 11 C-1 10.34 -1 9.68 -1 9 C-4.3863251 7.49069817 -4.3863251 7.49069817 -8 7 C-7.08529012 1.6946827 -5.46561428 0 0 0 Z " fill="#0E4F8D" transform="translate(394,222)"/>
<path d="M0 0 C0.33 0.66 0.66 1.32 1 2 C1.66 2 2.32 2 3 2 C3 2.99 3 3.98 3 5 C1.68 5 0.36 5 -1 5 C-1.66 6.32 -2.32 7.64 -3 9 C-5.31 9 -7.62 9 -10 9 C-10.0625 6.75 -10.0625 6.75 -9 4 C-6.13325156 2.30699573 -3.12586629 1.13036377 0 0 Z " fill="#0A4C90" transform="translate(446,261)"/>
<path d="M0 0 C1.32 0.66 2.64 1.32 4 2 C4 3.32 4 4.64 4 6 C3.01 6 2.02 6 1 6 C0.67 6.66 0.34 7.32 0 8 C-0.33 7.67 -0.66 7.34 -1 7 C-1.33 8.65 -1.66 10.3 -2 12 C-3.65 10.35 -5.3 8.7 -7 7 C-4.66666667 4.66666667 -2.33333333 2.33333333 0 0 Z " fill="#074283" transform="translate(107,153)"/>
<path d="M0 0 C1.98 0.99 3.96 1.98 6 3 C6 5.31 6 7.62 6 10 C2.8035914 11.06546953 0.34252724 11.07427838 -3 11 C-2.67 9.02 -2.34 7.04 -2 5 C-1.34 5 -0.68 5 0 5 C-0.2784375 4.0409375 -0.2784375 4.0409375 -0.5625 3.0625 C-0.706875 2.381875 -0.85125 1.70125 -1 1 C-0.67 0.67 -0.34 0.34 0 0 Z " fill="#084F92" transform="translate(382,182)"/>
<path d="M0 0 C1.125 5.625 1.125 5.625 0 9 C-1.258125 8.938125 -2.51625 8.87625 -3.8125 8.8125 C-7.16958979 8.76367078 -7.16958979 8.76367078 -10 10.5 C-10.33 10.995 -10.66 11.49 -11 12 C-11.66 11.67 -12.32 11.34 -13 11 C-11.21427748 9.16052663 -9.42197551 7.32842259 -7.625 5.5 C-7.11710937 4.97535156 -6.60921875 4.45070312 -6.0859375 3.91015625 C-2.2265625 0 -2.2265625 0 0 0 Z " fill="#054085" transform="translate(373,240)"/>
<path d="M0 0 C0.66 1.32 1.32 2.64 2 4 C2.495 4.45375 2.99 4.9075 3.5 5.375 C5.59019379 7.6393766 6.1554382 10.07651684 7 13 C3.7 12.01 0.4 11.02 -3 10 C-2.01 6.7 -1.02 3.4 0 0 Z " fill="#094488" transform="translate(293,230)"/>
<path d="M0 0 C2.64 0.33 5.28 0.66 8 1 C8.33 2.65 8.66 4.3 9 6 C8.01 6.495 8.01 6.495 7 7 C7 6.34 7 5.68 7 5 C6.278125 5.391875 5.55625 5.78375 4.8125 6.1875 C2 7 2 7 -0.8125 5.625 C-1.534375 5.08875 -2.25625 4.5525 -3 4 C-2.01 2.68 -1.02 1.36 0 0 Z " fill="#0E5191" transform="translate(405,208)"/>
<path d="M0 0 C0.33 0.99 0.66 1.98 1 3 C-2.63 3 -6.26 3 -10 3 C-10 3.66 -10 4.32 -10 5 C-14.29 4.67 -18.58 4.34 -23 4 C-23 3.67 -23 3.34 -23 3 C-15.44818759 0.68822069 -7.83483894 0.3876613 0 0 Z " fill="#094287" transform="translate(468,324)"/>
<path d="M0 0 C0.33 0.99 0.66 1.98 1 3 C1.66 3.33 2.32 3.66 3 4 C1.515 6.475 1.515 6.475 0 9 C0.66 9.33 1.32 9.66 2 10 C0.02 10.33 -1.96 10.66 -4 11 C-4.95024979 7.30458414 -4.95024979 4.69541586 -4 1 C-2.68 0.67 -1.36 0.34 0 0 Z " fill="#065196" transform="translate(76,228)"/>
<path d="M0 0 C7.07721931 -0.12109311 13.97195301 0.14626761 21 1 C21 1.33 21 1.66 21 2 C20.04738281 2.04898437 19.09476563 2.09796875 18.11328125 2.1484375 C16.85902344 2.22320312 15.60476562 2.29796875 14.3125 2.375 C12.45044922 2.47941406 12.45044922 2.47941406 10.55078125 2.5859375 C7.24025736 2.97198319 4.89942585 3.38050088 2 5 C1.34 6.32 0.68 7.64 0 9 C0 6.03 0 3.06 0 0 Z " fill="#03367F" transform="translate(7,318)"/>
<path d="M0 0 C0.33 0.66 0.66 1.32 1 2 C1.66 2 2.32 2 3 2 C3 2.66 3 3.32 3 4 C3.99 4.33 4.98 4.66 6 5 C5.34 5 4.68 5 4 5 C4 5.66 4 6.32 4 7 C6.475 7.99 6.475 7.99 9 9 C9 9.66 9 10.32 9 11 C6.8125 11.75 6.8125 11.75 4 12 C1.1875 10.0625 1.1875 10.0625 -1 8 C-0.34 6.68 0.32 5.36 1 4 C0.34 3.67 -0.32 3.34 -1 3 C-0.67 2.01 -0.34 1.02 0 0 Z " fill="#045098" transform="translate(26,283)"/>
<path d="M0 0 C2.00720923 0.28674418 4.0085944 0.61866701 6 1 C6 2.65 6 4.3 6 6 C5.01 5.67 4.02 5.34 3 5 C-0.61029169 5 -3.55806676 5.96092582 -7 7 C-6.67 5.35 -6.34 3.7 -6 2 C-2.125 1 -2.125 1 -1 1 C-0.67 0.67 -0.34 0.34 0 0 Z " fill="#045197" transform="translate(90,273)"/>
<path d="M0 0 C0.33 0.99 0.66 1.98 1 3 C-1.31 3.33 -3.62 3.66 -6 4 C-6 4.99 -6 5.98 -6 7 C-7.65 6.67 -9.3 6.34 -11 6 C-11 5.34 -11 4.68 -11 4 C-11.66 3.67 -12.32 3.34 -13 3 C-8.50235477 -1.63819664 -5.96030685 -1.2122658 0 0 Z " fill="#065195" transform="translate(373,249)"/>
<path d="M0 0 C1 1.33333333 2 2.66666667 3 4 C3.804375 5.051875 3.804375 5.051875 4.625 6.125 C6 8 6 8 7 10 C6.01 11.485 6.01 11.485 5 13 C4.34 13 3.68 13 3 13 C3 12.01 3 11.02 3 10 C2.34 10 1.68 10 1 10 C0.67 9.01 0.34 8.02 0 7 C-0.99 8.485 -0.99 8.485 -2 10 C-2.66 9.67 -3.32 9.34 -4 9 C-2.80100302 5.9168649 -1.52299523 2.93720508 0 0 Z " fill="#074281" transform="translate(363,143)"/>
<path d="M0 0 C0.66 0.33 1.32 0.66 2 1 C2 1.66 2 2.32 2 3 C1.01 3 0.02 3 -1 3 C-0.67 3.99 -0.34 4.98 0 6 C-0.99 6.33 -1.98 6.66 -3 7 C-3 7.99 -3 8.98 -3 10 C-7.10958767 8.54955729 -10.43258745 6.48889248 -14 4 C-12.68 3.34 -11.36 2.68 -10 2 C-9.67 2.99 -9.34 3.98 -9 5 C-8.01 5.33 -7.02 5.66 -6 6 C-5.67 4.68 -5.34 3.36 -5 2 C-3.33333333 2 -1.66666667 2 0 2 C0 1.34 0 0.68 0 0 Z " fill="#064082" transform="translate(109,249)"/>
<path d="M0 0 C0.66 0.33 1.32 0.66 2 1 C2.33 1.99 2.66 2.98 3 4 C3.33 4.66 3.66 5.32 4 6 C4.66 4.02 5.32 2.04 6 0 C7.32 0.33 8.64 0.66 10 1 C8.5140084 5.59306496 6.14985318 8.43569245 3 12 C2.67 11.01 2.34 10.02 2 9 C2.66 9 3.32 9 4 9 C4 8.34 4 7.68 4 7 C2.68 6.34 1.36 5.68 0 5 C0 4.34 0 3.68 0 3 C-0.66 2.67 -1.32 2.34 -2 2 C-1.34 1.34 -0.68 0.68 0 0 Z " fill="#054083" transform="translate(388,175)"/>
<path d="M0 0 C3 3.75 3 3.75 3 6 C3.66 6.33 4.32 6.66 5 7 C5 6.01 5 5.02 5 4 C5.99 4.33 6.98 4.66 8 5 C6.55922954 8.36179774 4.75249979 10.59156268 2 13 C1.34 13 0.68 13 0 13 C-0.19397476 11.02145742 -0.38001321 9.0421352 -0.5625 7.0625 C-0.66691406 5.96035156 -0.77132813 4.85820312 -0.87890625 3.72265625 C-0.91886719 2.82417969 -0.95882813 1.92570313 -1 1 C-0.67 0.67 -0.34 0.34 0 0 Z " fill="#124D88" transform="translate(373,238)"/>
<path d="M0 0 C0.66 1.98 1.32 3.96 2 6 C1.34 5.67 0.68 5.34 0 5 C0 4.34 0 3.68 0 3 C-1.92309422 3.03955898 -1.92309422 3.03955898 -4 4 C-5.78379415 6.98352894 -5.78379415 6.98352894 -7 10 C-6.34 10 -5.68 10 -5 10 C-5 11.65 -5 13.3 -5 15 C-10 8.63636364 -10 8.63636364 -10 4 C-8.71086513 3.32845067 -7.41859796 2.66291141 -6.125 2 C-5.40570313 1.62875 -4.68640625 1.2575 -3.9453125 0.875 C-2 0 -2 0 0 0 Z " fill="#083B7A" transform="translate(145,132)"/>
<path d="M0 0 C-0.66 1.32 -1.32 2.64 -2 4 C-2.99 4 -3.98 4 -5 4 C-5.33 4.99 -5.66 5.98 -6 7 C-8.31 6.01 -10.62 5.02 -13 4 C-13 3.34 -13 2.68 -13 2 C-8.11922548 -0.44038726 -5.47332932 -1.46845421 0 0 Z " fill="#0E4C8D" transform="translate(405,282)"/>
<path d="M0 0 C1.32 0.66 2.64 1.32 4 2 C-0.75 6 -0.75 6 -3 6 C-2.67 6.66 -2.34 7.32 -2 8 C-1.01 8.2165625 -1.01 8.2165625 0 8.4375 C0.66 8.623125 1.32 8.80875 2 9 C2.33 9.99 2.66 10.98 3 12 C1.53932801 11.54917531 0.08151968 11.08906463 -1.375 10.625 C-2.59316406 10.24214844 -2.59316406 10.24214844 -3.8359375 9.8515625 C-6 9 -6 9 -8 7 C-6.68 7 -5.36 7 -4 7 C-3.8453125 5.824375 -3.8453125 5.824375 -3.6875 4.625 C-3 2 -3 2 0 0 Z " fill="#033E81" transform="translate(80,267)"/>
<path d="M0 0 C0.99 0 1.98 0 3 0 C3.99 2.31 4.98 4.62 6 7 C5.01 7.33 4.02 7.66 3 8 C2.67 8.33 2.34 8.66 2 9 C1.67 9.33 1.34 9.66 1 10 C1.33 10.99 1.66 11.98 2 13 C1.01 13.33 0.02 13.66 -1 14 C-2.51708428 4.58997722 -2.51708428 4.58997722 0 0 Z " fill="#045094" transform="translate(151,152)"/>
<path d="M0 0 C1.51400391 0.01740234 1.51400391 0.01740234 3.05859375 0.03515625 C4.07050781 0.04417969 5.08242188 0.05320312 6.125 0.0625 C7.29869141 0.07990234 7.29869141 0.07990234 8.49609375 0.09765625 C8.49609375 1.08765625 8.49609375 2.07765625 8.49609375 3.09765625 C1.61031563 4.11359073 -4.60201654 3.9362036 -11.50390625 3.09765625 C-11.50390625 2.76765625 -11.50390625 2.43765625 -11.50390625 2.09765625 C-9.453125 1.86979167 -7.40234375 1.64192708 -5.3515625 1.4140625 C-2.80701946 0.97831623 -2.79909069 0.1091689 0 0 Z " fill="#0E4E8B" transform="translate(496.50390625,321.90234375)"/>
<path d="M0 0 C-1.47348708 3.42527887 -3.40907846 5.64955058 -6.0625 8.25 C-6.77535156 8.95640625 -7.48820312 9.6628125 -8.22265625 10.390625 C-10 12 -10 12 -11 12 C-10.67 9.36 -10.34 6.72 -10 4 C-8.68 4 -7.36 4 -6 4 C-5.67 3.01 -5.34 2.02 -5 1 C-3 0 -3 0 0 0 Z " fill="#043E83" transform="translate(372,251)"/>
<path d="M0 0 C0.66 0 1.32 0 2 0 C2.33 0.66 2.66 1.32 3 2 C3.99 2.33 4.98 2.66 6 3 C2.7 6.3 -0.6 9.6 -4 13 C-4 10 -4 10 -3 7 C-2.34 7 -1.68 7 -1 7 C-1.20625 6.21625 -1.4125 5.4325 -1.625 4.625 C-1.74875 3.75875 -1.8725 2.8925 -2 2 C-1.34 1.34 -0.68 0.68 0 0 Z " fill="#054083" transform="translate(423,196)"/>
<path d="M0 0 C2.97 0.495 2.97 0.495 6 1 C4.68 1.33 3.36 1.66 2 2 C2 3.32 2 4.64 2 6 C2 6.66 2 7.32 2 8 C1.38125 8.53625 0.7625 9.0725 0.125 9.625 C-2.81292544 12.90856373 -3.14158635 15.70793174 -4 20 C-4.66 20 -5.32 20 -6 20 C-4.63125844 13.04223041 -2.5466871 6.61396893 0 0 Z " fill="#093B7D" transform="translate(331,118)"/>
<path d="M0 0 C0.66 1.32 1.32 2.64 2 4 C1.34 4 0.68 4 0 4 C0.33 4.99 0.66 5.98 1 7 C1.66 7.33 2.32 7.66 3 8 C3 8.66 3 9.32 3 10 C3.66 10 4.32 10 5 10 C4.67 10.99 4.34 11.98 4 13 C-2.57142857 9 -2.57142857 9 -4 5 C-2.68 3.35 -1.36 1.7 0 0 Z " fill="#0C3D79" transform="translate(329,252)"/>
<path d="M0 0 C1.67542976 0.28604898 3.34385343 0.61781233 5 1 C4.01 1.495 4.01 1.495 3 2 C3.0825 2.928125 3.165 3.85625 3.25 4.8125 C3 8 3 8 1 9.875 C0.01 10.431875 0.01 10.431875 -1 11 C-1.94778635 7.31416418 -2.02143554 4.67716794 -1 1 C-0.67 0.67 -0.34 0.34 0 0 Z " fill="#115594" transform="translate(432,186)"/>
<path d="M0 0 C1.5625 1.8125 1.5625 1.8125 3 4 C2.67 4.99 2.34 5.98 2 7 C2.99 7.33 3.98 7.66 5 8 C4.34 9.32 3.68 10.64 3 12 C2.67 11.01 2.34 10.02 2 9 C0.68 9.33 -0.64 9.66 -2 10 C-1.67 8.68 -1.34 7.36 -1 6 C-2.32 6.33 -3.64 6.66 -5 7 C-1.125 1.125 -1.125 1.125 0 0 Z " fill="#053E7F" transform="translate(397,163)"/>
<path d="M0 0 C1.32 0.33 2.64 0.66 4 1 C4 1.66 4 2.32 4 3 C5.32 3.66 6.64 4.32 8 5 C7.67 6.32 7.34 7.64 7 9 C6.34 9 5.68 9 5 9 C5 8.01 5 7.02 5 6 C4.01 6 3.02 6 2 6 C2 5.34 2 4.68 2 4 C-0.97 3.505 -0.97 3.505 -4 3 C-3.34 2.34 -2.68 1.68 -2 1 C-1.34 1.33 -0.68 1.66 0 2 C0 1.34 0 0.68 0 0 Z " fill="#024E95" transform="translate(144,277)"/>
<path d="M0 0 C1.65 0 3.3 0 5 0 C4.814375 0.78375 4.62875 1.5675 4.4375 2.375 C3.74037734 4.97089775 3.74037734 4.97089775 5 7 C2 9 2 9 -1 9 C-2.6875 7 -2.6875 7 -4 5 C-3 3 -3 3 0 2 C0 1.34 0 0.68 0 0 Z " fill="#065097" transform="translate(110,160)"/>
<path d="M0 0 C6.57534861 0.62031591 12.66692592 2.14897283 19 4 C16 6 16 6 14 6 C14 5.34 14 4.68 14 4 C13.01 4.495 13.01 4.495 12 5 C12 5.66 12 6.32 12 7 C10.68 7.33 9.36 7.66 8 8 C8.33 6.35 8.66 4.7 9 3 C5.7 2.67 2.4 2.34 -1 2 C-0.67 1.34 -0.34 0.68 0 0 Z " fill="#024082" transform="translate(79,297)"/>
<path d="M0 0 C2.30104014 2.12251117 3.81894459 4.15548556 5.25 6.9375 C5.78367188 7.94103516 5.78367188 7.94103516 6.328125 8.96484375 C7.12634 11.38269269 6.82707306 12.63011757 6 15 C5.34 15 4.68 15 4 15 C3.67 13.68 3.34 12.36 3 11 C2.01 11.495 2.01 11.495 1 12 C0.67 10.35 0.34 8.7 0 7 C0.66 7 1.32 7 2 7 C2 6.01 2 5.02 2 4 C1.01 3.67 0.02 3.34 -1 3 C-0.67 2.01 -0.34 1.02 0 0 Z " fill="#044384" transform="translate(158,160)"/>
<path d="M0 0 C2.63886669 3.18483911 5.14494105 6.2898821 7 10 C6.67 10.99 6.34 11.98 6 13 C4.68 12.67 3.36 12.34 2 12 C2.66 12 3.32 12 4 12 C4 11.01 4 10.02 4 9 C3.01 9.33 2.02 9.66 1 10 C0.34 9.34 -0.32 8.68 -1 8 C-0.34 7.34 0.32 6.68 1 6 C0.649375 5.38125 0.29875 4.7625 -0.0625 4.125 C-0.371875 3.42375 -0.68125 2.7225 -1 2 C-0.67 1.34 -0.34 0.68 0 0 Z " fill="#074587" transform="translate(338,290)"/>
<path d="M0 0 C-1.53643852 3.68069887 -3.78150945 5.98775204 -6.625 8.75 C-7.85089844 9.94882813 -7.85089844 9.94882813 -9.1015625 11.171875 C-9.72804688 11.77515625 -10.35453125 12.3784375 -11 13 C-11.33 12.01 -11.66 11.02 -12 10 C-11.34 10 -10.68 10 -10 10 C-9.67 8.02 -9.34 6.04 -9 4 C-7.68 4.33 -6.36 4.66 -5 5 C-5 4.01 -5 3.02 -5 2 C-2 0 -2 0 0 0 Z " fill="#043D84" transform="translate(393,231)"/>
<path d="M0 0 C0.66 0.33 1.32 0.66 2 1 C2.625 3.5625 2.625 3.5625 3 6 C1.35 7.32 -0.3 8.64 -2 10 C-2.99 8.35 -3.98 6.7 -5 5 C-4.34 4.67 -3.68 4.34 -3 4 C-3 3.34 -3 2.68 -3 2 C-2.01 2 -1.02 2 0 2 C0 1.34 0 0.68 0 0 Z " fill="#034E97" transform="translate(169,183)"/>
<path d="M0 0 C2.64 0.33 5.28 0.66 8 1 C7.3828125 2.953125 7.3828125 2.953125 6 5 C3.1796875 5.609375 3.1796875 5.609375 -0.125 5.75 C-1.22070312 5.80671875 -2.31640625 5.8634375 -3.4453125 5.921875 C-4.28835938 5.94765625 -5.13140625 5.9734375 -6 6 C-6.33 5.01 -6.66 4.02 -7 3 C-5.5459375 2.814375 -5.5459375 2.814375 -4.0625 2.625 C-2.5465625 2.315625 -2.5465625 2.315625 -1 2 C-0.67 1.34 -0.34 0.68 0 0 Z " fill="#094F92" transform="translate(440,296)"/>
<path d="M0 0 C3.465 1.98 3.465 1.98 7 4 C6.360625 4.185625 5.72125 4.37125 5.0625 4.5625 C2.57873787 5.94246056 2.57873787 5.94246056 2.25 9.625 C2.1675 10.73875 2.085 11.8525 2 13 C-0.475 12.01 -0.475 12.01 -3 11 C-2 9 -2 9 1 8 C0.67 5.36 0.34 2.72 0 0 Z " fill="#044088" transform="translate(85,234)"/>
<path d="M0 0 C0.99 0.33 1.98 0.66 3 1 C2.34 2.32 1.68 3.64 1 5 C0.34 4.67 -0.32 4.34 -1 4 C-3.21399303 7.79541663 -4.00980198 11.75629421 -5 16 C-5.33 16 -5.66 16 -6 16 C-5.85795259 14.41632253 -5.71119847 12.83306682 -5.5625 11.25 C-5.48128906 10.36828125 -5.40007812 9.4865625 -5.31640625 8.578125 C-5.03761535 6.30649548 -4.61209423 4.20148177 -4 2 C-3.01 2 -2.02 2 -1 2 C-0.67 1.34 -0.34 0.68 0 0 Z " fill="#024187" transform="translate(165,315)"/>
<path d="M0 0 C0.99 0.33 1.98 0.66 3 1 C2.67 1.99 2.34 2.98 2 4 C2.33 4.33 2.66 4.66 3 5 C2.67 5.99 2.34 6.98 2 8 C1.01 8 0.02 8 -1 8 C-1 8.66 -1 9.32 -1 10 C-0.34 10.33 0.32 10.66 1 11 C-2 11 -2 11 -3.6875 9.5 C-4.120625 9.005 -4.55375 8.51 -5 8 C-4.67 7.01 -4.34 6.02 -4 5 C-3.34 4.67 -2.68 4.34 -2 4 C-0.86649466 1.98330173 -0.86649466 1.98330173 0 0 Z " fill="#035096" transform="translate(350,261)"/>
<path d="M0 0 C0.99 0.66 1.98 1.32 3 2 C2.67 3.32 2.34 4.64 2 6 C0.68 6 -0.64 6 -2 6 C-2.18175781 6.62648437 -2.36351562 7.25296875 -2.55078125 7.8984375 C-2.80214844 8.71570313 -3.05351562 9.53296875 -3.3125 10.375 C-3.55613281 11.18710938 -3.79976563 11.99921875 -4.05078125 12.8359375 C-5 15 -5 15 -8 17 C-6.3341708 10.83643195 -3.12194714 5.51740344 0 0 Z " fill="#083E84" transform="translate(334,198)"/>
<path d="M0 0 C0.99 1.32 1.98 2.64 3 4 C1.68 3.67 0.36 3.34 -1 3 C-1 4.32 -1 5.64 -1 7 C-4 8 -4 8 -7 7 C-6.67 6.34 -6.34 5.68 -6 5 C-6.33 4.67 -6.66 4.34 -7 4 C-5 1 -5 1 -2.375 0.3125 C-1.59125 0.209375 -0.8075 0.10625 0 0 Z " fill="#0C5296" transform="translate(424,272)"/>
<path d="M0 0 C0.66 0.33 1.32 0.66 2 1 C1.67 1.99 1.34 2.98 1 4 C4.465 3.505 4.465 3.505 8 3 C4.2440786 6.42931954 -0.23466745 7.56429083 -5 9 C-5 8.34 -5 7.68 -5 7 C-3.68 7 -2.36 7 -1 7 C-1.33 5.02 -1.66 3.04 -2 1 C-1.34 0.67 -0.68 0.34 0 0 Z " fill="#06397D" transform="translate(435,266)"/>
<path d="M0 0 C0.66 0 1.32 0 2 0 C2.625 2.375 2.625 2.375 3 5 C2.34 5.66 1.68 6.32 1 7 C1 7.33 1 7.66 1 8 C-0.98 8 -2.96 8 -5 8 C-5.33 7.34 -5.66 6.68 -6 6 C-5.34 6 -4.68 6 -4 6 C-4 5.01 -4 4.02 -4 3 C-2.68 2.67 -1.36 2.34 0 2 C0 1.34 0 0.68 0 0 Z " fill="#034F94" transform="translate(419,198)"/>
<path d="M0 0 C1.17369141 -0.02513672 1.17369141 -0.02513672 2.37109375 -0.05078125 C5.02377163 0.38896749 5.885467 1.26878454 7.5625 3.3125 C0.53610585 4.06055717 -6.37141809 4.45044954 -13.4375 4.3125 C-13.4375 3.9825 -13.4375 3.6525 -13.4375 3.3125 C-12.32375 3.18875 -11.21 3.065 -10.0625 2.9375 C-5.80103031 2.20276385 -4.40657273 0.02170725 0 0 Z " fill="#022B75" transform="translate(488.4375,322.6875)"/>
<path d="M0 0 C-0.66 0 -1.32 0 -2 0 C-2 0.66 -2 1.32 -2 2 C-2.66 2 -3.32 2 -4 2 C-4 2.66 -4 3.32 -4 4 C-2.68 4.33 -1.36 4.66 0 5 C-2.64 5.33 -5.28 5.66 -8 6 C-7.67 4.68 -7.34 3.36 -7 2 C-8.32 1.67 -9.64 1.34 -11 1 C-3.375 -1.125 -3.375 -1.125 0 0 Z " fill="#02387F" transform="translate(385,311)"/>
<path d="M0 0 C1.65 0 3.3 0 5 0 C3.50902342 3.7952131 1.24299151 5.61042731 -2 8 C-2 7.34 -2 6.68 -2 6 C-2.66 5.67 -3.32 5.34 -4 5 C-3.34 3.68 -2.68 2.36 -2 1 C-1.67 1.66 -1.34 2.32 -1 3 C-0.67 2.01 -0.34 1.02 0 0 Z " fill="#1A528C" transform="translate(349,269)"/>
<path d="M0 0 C4.875 4.75 4.875 4.75 6 7 C4.35 6.67 2.7 6.34 1 6 C0.67 4.02 0.34 2.04 0 0 Z M-2 6 C-1.01 6 -0.02 6 1 6 C1 6.66 1 7.32 1 8 C0.34 8 -0.32 8 -1 8 C-1.33 8.99 -1.66 9.98 -2 11 C-2.5625 9.0625 -2.5625 9.0625 -3 7 C-2.67 6.67 -2.34 6.34 -2 6 Z M-4 11 C-3.01 11.495 -3.01 11.495 -2 12 C-2.66 12.66 -3.32 13.32 -4 14 C-4 13.01 -4 12.02 -4 11 Z " fill="#10498A" transform="translate(160,221)"/>
<path d="M0 0 C0.99 0 1.98 0 3 0 C3 0.66 3 1.32 3 2 C3.66 2 4.32 2 5 2 C3.68938409 6.23429756 2.05643741 10.07407404 0 14 C-0.33 14 -0.66 14 -1 14 C-1 12.02 -1 10.04 -1 8 C-0.34 8 0.32 8 1 8 C1 7.01 1 6.02 1 5 C1.66 5 2.32 5 3 5 C3 4.34 3 3.68 3 3 C2.34 3 1.68 3 1 3 C0.67 2.01 0.34 1.02 0 0 Z M-1 3 C-0.01 3.495 -0.01 3.495 1 4 C0.01 4.495 0.01 4.495 -1 5 C-1 4.34 -1 3.68 -1 3 Z " fill="#034080" transform="translate(338,201)"/>
<path d="M0 0 C0 3.84323789 -0.93721621 5.7683054 -3 9 C-6.1875 10.375 -6.1875 10.375 -9 11 C-6.62245212 6.50907623 -3.6393937 3.47764287 0 0 Z " fill="#134C88" transform="translate(189,271)"/>
<path d="M0 0 C0.99 0 1.98 0 3 0 C3.66 3.3 4.32 6.6 5 10 C2.69 8.02 0.38 6.04 -2 4 C-1.34 3.67 -0.68 3.34 0 3 C0 2.01 0 1.02 0 0 Z " fill="#033F88" transform="translate(103,213)"/>
<path d="M0 0 C2.33333333 0 4.66666667 0 7 0 C6.67 1.65 6.34 3.3 6 5 C4.35 5.33 2.7 5.66 1 6 C0.67 4.02 0.34 2.04 0 0 Z " fill="#025096" transform="translate(131,236)"/>
<path d="M0 0 C1.9375 0.625 1.9375 0.625 4 2 C4.97725184 5.21097032 5.4096133 7.09369025 4.0078125 10.1953125 C3.67523438 10.79085937 3.34265625 11.38640625 3 12 C2.49440092 10.56445975 1.9957251 9.1264798 1.5 7.6875 C1.2215625 6.88699219 0.943125 6.08648437 0.65625 5.26171875 C0 3 0 3 0 0 Z " fill="#044081" transform="translate(193,186)"/>
<path d="M0 0 C2.31 0 4.62 0 7 0 C7 0.33 7 0.66 7 1 C8.65 1.33 10.3 1.66 12 2 C12 2.33 12 2.66 12 3 C5.62694402 3.74507544 -0.58311325 4.10349817 -7 4 C-7 3.67 -7 3.34 -7 3 C-5.5459375 2.814375 -5.5459375 2.814375 -4.0625 2.625 C-2.5465625 2.315625 -2.5465625 2.315625 -1 2 C-0.67 1.34 -0.34 0.68 0 0 Z " fill="#022971" transform="translate(443,326)"/>
<path d="M0 0 C2.31 0 4.62 0 7 0 C7 0.99 7 1.98 7 3 C6 4 6 4 2.4375 4.0625 C1.303125 4.041875 0.16875 4.02125 -1 4 C-0.67 2.68 -0.34 1.36 0 0 Z " fill="#04488D" transform="translate(481,287)"/>
<path d="M0 0 C0.66 1.32 1.32 2.64 2 4 C1.34 4 0.68 4 0 4 C-1.33333333 7 -1.33333333 7 0 10 C-0.99 10.495 -0.99 10.495 -2 11 C-5 5.25 -5 5.25 -5 3 C-2.5 1.375 -2.5 1.375 0 0 Z " fill="#0D4384" transform="translate(354,281)"/>
<path d="M0 0 C0.8971875 0.309375 0.8971875 0.309375 1.8125 0.625 C1.8125 1.285 1.8125 1.945 1.8125 2.625 C0.4925 2.625 -0.8275 2.625 -2.1875 2.625 C-2.1875 3.285 -2.1875 3.945 -2.1875 4.625 C-4.4975 4.625 -6.8075 4.625 -9.1875 4.625 C-8.8575 3.305 -8.5275 1.985 -8.1875 0.625 C-7.1975 0.955 -6.2075 1.285 -5.1875 1.625 C-2.1875 -0.375 -2.1875 -0.375 0 0 Z " fill="#064D8E" transform="translate(462.1875,257.375)"/>
<path d="M0 0 C0.99 0.33 1.98 0.66 3 1 C3 2.65 3 4.3 3 6 C2.195625 6.12375 1.39125 6.2475 0.5625 6.375 C-0.7059375 6.684375 -0.7059375 6.684375 -2 7 C-2.33 7.66 -2.66 8.32 -3 9 C-3.26218749 5.85375007 -3.24754367 4.38162983 -1.5 1.6875 C-1.005 1.130625 -0.51 0.57375 0 0 Z " fill="#055096" transform="translate(34,249)"/>
<path d="M0 0 C0.99 0 1.98 0 3 0 C2.75 3.375 2.75 3.375 2 7 C-0.0625 8.4375 -0.0625 8.4375 -2 9 C-2.66 7.68 -3.32 6.36 -4 5 C-2.1875 2.5 -2.1875 2.5 0 0 Z " fill="#0F5094" transform="translate(347,228)"/>
<path d="M0 0 C0.33 0.66 0.66 1.32 1 2 C0.01 2.495 0.01 2.495 -1 3 C-0.67 5.31 -0.34 7.62 0 10 C-1.98 10.99 -1.98 10.99 -4 12 C-3.95875 11.05125 -3.9175 10.1025 -3.875 9.125 C-3.65026182 5.89755144 -3.65026182 5.89755144 -6 4 C-4.02 2.68 -2.04 1.36 0 0 Z " fill="#053C80" transform="translate(451,219)"/>
<path d="M0 0 C1.32 0.66 2.64 1.32 4 2 C3.67 2.66 3.34 3.32 3 4 C2.34 3.67 1.68 3.34 1 3 C1 3.66 1 4.32 1 5 C1.99 5 2.98 5 4 5 C3.67 5.99 3.34 6.98 3 8 C-0.36720387 6.60667426 -1.9859524 5.0210714 -4 2 C-3.01 2 -2.02 2 -1 2 C-0.67 1.34 -0.34 0.68 0 0 Z " fill="#033D82" transform="translate(82,193)"/>
<path d="M0 0 C0 0.99 0 1.98 0 3 C-4.95 2.67 -9.9 2.34 -15 2 C-15 1.67 -15 1.34 -15 1 C-9.42567486 -0.66251802 -5.6932495 -1.18609365 0 0 Z " fill="#0F4F8D" transform="translate(395,331)"/>
<path d="M0 0 C0.99 0.66 1.98 1.32 3 2 C2.67 2.99 2.34 3.98 2 5 C-0.64 5.33 -3.28 5.66 -6 6 C-6.33 5.01 -6.66 4.02 -7 3 C-3.6875 1.375 -3.6875 1.375 0 0 Z " fill="#074E92" transform="translate(415,302)"/>
<path d="M0 0 C0.66 0.33 1.32 0.66 2 1 C1.505 1.556875 1.01 2.11375 0.5 2.6875 C-1.24754367 5.38162983 -1.26218749 6.85375007 -1 10 C-1.99 10 -2.98 10 -4 10 C-4.66 8.68 -5.32 7.36 -6 6 C-4.02 4.02 -2.04 2.04 0 0 Z " fill="#0B427C" transform="translate(75,180)"/>
<path d="M0 0 C0.625 2.0625 0.625 2.0625 1 4 C-1.31 4 -3.62 4 -6 4 C-6.66 2.68 -7.32 1.36 -8 0 C-2.25 -1.125 -2.25 -1.125 0 0 Z " fill="#044F94" transform="translate(383,269)"/>
<path d="M0 0 C2.64 0 5.28 0 8 0 C8.33 1.32 8.66 2.64 9 4 C5.86650268 5.04449911 5.01031744 4.93423645 2 4 C2 3.34 2 2.68 2 2 C1.34 2 0.68 2 0 2 C0 1.34 0 0.68 0 0 Z " fill="#084A8B" transform="translate(472,250)"/>
<path d="M0 0 C1.76462683 3.08809695 2 4.23312136 2 8 C-6.03571429 10.27678571 -6.03571429 10.27678571 -10 9 C-6.535 8.505 -6.535 8.505 -3 8 C-3 7.34 -3 6.68 -3 6 C-2.01 6 -1.02 6 0 6 C0 4.02 0 2.04 0 0 Z " fill="#0A397E" transform="translate(240,227)"/>
<path d="M0 0 C1.75128818 0.28382946 3.50100003 0.57739529 5.25 0.875 C6.71179688 1.11863281 6.71179688 1.11863281 8.203125 1.3671875 C10.77264117 1.94855848 12.72071056 2.70840265 15 4 C12.69 4 10.38 4 8 4 C8 4.66 8 5.32 8 6 C7.01 6 6.02 6 5 6 C4.87625 5.071875 4.87625 5.071875 4.75 4.125 C4.19884128 1.81418662 4.19884128 1.81418662 1.953125 0.8671875 C1.30859375 0.58101563 0.6640625 0.29484375 0 0 Z " fill="#033D7C" transform="translate(64,293)"/>
<path d="M0 0 C0.640625 1.8515625 0.640625 1.8515625 1 4 C-0.62102968 5.71108689 -2.29503463 7.37253306 -4 9 C-5.79320824 12.16645474 -5.79320824 12.16645474 -7 15 C-7.66 15 -8.32 15 -9 15 C-7.61219205 11.10993227 -5.7847773 8.03441292 -3.375 4.6875 C-2.74335938 3.80449219 -2.11171875 2.92148437 -1.4609375 2.01171875 C-0.97882813 1.34785156 -0.49671875 0.68398438 0 0 Z " fill="#0C3D80" transform="translate(179,282)"/>
<path d="M0 0 C0.33 0.66 0.66 1.32 1 2 C3.01669827 3.13350534 3.01669827 3.13350534 5 4 C5 4.99 5 5.98 5 7 C2.03 6.505 2.03 6.505 -1 6 C-0.67 6.99 -0.34 7.98 0 9 C-0.99 9.495 -0.99 9.495 -2 10 C-2.33 9.01 -2.66 8.02 -3 7 C-2.02727325 5.64664105 -1.0260734 4.31337396 0 3 C0 2.01 0 1.02 0 0 Z " fill="#064E94" transform="translate(355,280)"/>
<path d="M0 0 C0.33 0 0.66 0 1 0 C1 2.64 1 5.28 1 8 C-0.65 7.67 -2.3 7.34 -4 7 C-4.33 6.01 -4.66 5.02 -5 4 C-4.01 4 -3.02 4 -2 4 C-1.34 2.68 -0.68 1.36 0 0 Z " fill="#034D95" transform="translate(356,222)"/>
<path d="M0 0 C2.375 -0.1875 2.375 -0.1875 5 0 C5.66 0.99 6.32 1.98 7 3 C5.02 3.99 3.04 4.98 1 6 C1 5.34 1 4.68 1 4 C0.34 4 -0.32 4 -1 4 C-0.67 2.68 -0.34 1.36 0 0 Z " fill="#0D5092" transform="translate(107,211)"/>
<path d="M0 0 C2 3 2 3 1.625 5.6875 C1.41875 6.450625 1.2125 7.21375 1 8 C-1.97 7.505 -1.97 7.505 -5 7 C-5.33 6.01 -5.66 5.02 -6 4 C-4.35 3.67 -2.7 3.34 -1 3 C-0.67 2.01 -0.34 1.02 0 0 Z " fill="#0A5094" transform="translate(385,287)"/>
<path d="M0 0 C0.33 1.32 0.66 2.64 1 4 C-0.65 4.66 -2.3 5.32 -4 6 C-4 5.34 -4 4.68 -4 4 C-5.98 4 -7.96 4 -10 4 C-10 3.34 -10 2.68 -10 2 C-10.66 1.67 -11.32 1.34 -12 1 C-6.06 1.99 -6.06 1.99 0 3 C0 2.01 0 1.02 0 0 Z " fill="#D1E1E9" transform="translate(282,234)"/>
<path d="M0 0 C0.33 0.66 0.66 1.32 1 2 C1.66 2.33 2.32 2.66 3 3 C1.02579865 5.52259061 0.03254358 5.9929808 -3.1875 6.6875 C-4.5796875 6.8421875 -4.5796875 6.8421875 -6 7 C-4.02 4.69 -2.04 2.38 0 0 Z " fill="#033B7F" transform="translate(385,227)"/>
<path d="M0 0 C3.65316671 1.24976756 4.78065836 1.67098753 7 5 C4.21176345 6.0326802 3.1322726 6.04509293 0.25 5.0625 C-0.4925 4.711875 -1.235 4.36125 -2 4 C-1.34 2.68 -0.68 1.36 0 0 Z " fill="#063977" transform="translate(404,154)"/>
<path d="M0 0 C0 0.66 0 1.32 0 2 C-0.66 2.66 -1.32 3.32 -2 4 C-2 5.32 -2 6.64 -2 8 C-3.32 8.33 -4.64 8.66 -6 9 C-6 6.69 -6 4.38 -6 2 C-2.25 0 -2.25 0 0 0 Z " fill="#04377C" transform="translate(392,285)"/>
<path d="M0 0 C0.5534764 2.07553648 1 3.84365964 1 6 C1.99 7.485 1.99 7.485 3 9 C2.01 9.33 1.02 9.66 0 10 C-3 5.375 -3 5.375 -3 2 C-2.01 1.34 -1.02 0.68 0 0 Z " fill="#073F86" transform="translate(371,270)"/>
<path d="M0 0 C1.98 0 3.96 0 6 0 C6 0.99 6 1.98 6 3 C4.02 3.99 2.04 4.98 0 6 C0 4.02 0 2.04 0 0 Z " fill="#093E84" transform="translate(375,272)"/>
<path d="M0 0 C0 0.66 0 1.32 0 2 C1.32 2.33 2.64 2.66 4 3 C2.02 3.66 0.04 4.32 -2 5 C-3.32 3.35 -4.64 1.7 -6 0 C-3.50907189 -1.24546405 -2.58919267 -0.7767578 0 0 Z " fill="#033A7F" transform="translate(474,252)"/>
<path d="M0 0 C1.0209375 0.433125 1.0209375 0.433125 2.0625 0.875 C5.09301696 2.10325736 5.09301696 2.10325736 8.75 2.9375 C10.35875 3.4634375 10.35875 3.4634375 12 4 C12.33 4.99 12.66 5.98 13 7 C7.92990529 6.52467862 4.02506742 3.95637706 0 1 C0 0.67 0 0.34 0 0 Z " fill="#0B4187" transform="translate(52,225)"/>
<path d="M0 0 C3 3.75 3 3.75 3 6 C3.66 6 4.32 6 5 6 C5 8.97 5 11.94 5 15 C3.25050228 12.37575342 2.34610019 10.44272784 1.375 7.5 C0.98441406 6.33984375 0.98441406 6.33984375 0.5859375 5.15625 C0 3 0 3 0 0 Z " fill="#033A7D" transform="translate(184,158)"/>
<path d="M0 0 C0.33 0 0.66 0 1 0 C0.67 2.97 0.34 5.94 0 9 C0.66 9 1.32 9 2 9 C2.33 8.01 2.66 7.02 3 6 C3.66 7.65 4.32 9.3 5 11 C3.02 11 1.04 11 -1 11 C-0.67 7.37 -0.34 3.74 0 0 Z " fill="#014084" transform="translate(284,150)"/>
<path d="M0 0 C0.99 0.33 1.98 0.66 3 1 C2.01 4.3 1.02 7.6 0 11 C-2 8 -2 8 -2 5 C-2.66 4.67 -3.32 4.34 -4 4 C-2.68 3.67 -1.36 3.34 0 3 C0 2.01 0 1.02 0 0 Z " fill="#053C7C" transform="translate(338,120)"/>
<path d="M0 0 C1 3 1 3 0 6 C-0.66 6 -1.32 6 -2 6 C-2 6.66 -2 7.32 -2 8 C-1.01 8.33 -0.02 8.66 1 9 C0.01 9.66 -0.98 10.32 -2 11 C-2 10.34 -2 9.68 -2 9 C-2.66 9 -3.32 9 -4 9 C-3.46930939 5.17902761 -2.50298434 2.93828597 0 0 Z " fill="#075295" transform="translate(130,309)"/>
<path d="M0 0 C1 3 1 3 0.3125 5.125 C-1 7 -1 7 -3.125 7.75 C-4.053125 7.87375 -4.053125 7.87375 -5 8 C-5 8.66 -5 9.32 -5 10 C-5.66 9.67 -6.32 9.34 -7 9 C-4.69 6.03 -2.38 3.06 0 0 Z " fill="#0B3A77" transform="translate(343,234)"/>
<path d="M0 0 C1.98 0.99 1.98 0.99 4 2 C3.67 4.31 3.34 6.62 3 9 C2.01 8.67 1.02 8.34 0 8 C0 5.36 0 2.72 0 0 Z " fill="#0B4D8D" transform="translate(444,223)"/>
<path d="M0 0 C0.33 0.99 0.66 1.98 1 3 C0.67 3.66 0.34 4.32 0 5 C0.66 5.33 1.32 5.66 2 6 C0.35 6.33 -1.3 6.66 -3 7 C-3 7.66 -3 8.32 -3 9 C-3.66 9 -4.32 9 -5 9 C-4.67 7.68 -4.34 6.36 -4 5 C-3.34 5 -2.68 5 -2 5 C-1.7834375 4.0409375 -1.7834375 4.0409375 -1.5625 3.0625 C-1 1 -1 1 0 0 Z " fill="#024D93" transform="translate(396,219)"/>
<path d="M0 0 C1.98 1.65 3.96 3.3 6 5 C5.01 5.33 4.02 5.66 3 6 C2.67 6.66 2.34 7.32 2 8 C0.4375 5.6875 0.4375 5.6875 -1 3 C-0.67 2.01 -0.34 1.02 0 0 Z " fill="#043C84" transform="translate(104,205)"/>
<path d="M0 0 C0.99 0.99 1.98 1.98 3 3 C2.01 3.33 1.02 3.66 0 4 C-0.33 4.99 -0.66 5.98 -1 7 C-2.32 6.67 -3.64 6.34 -5 6 C-5 5.34 -5 4.68 -5 4 C-4.34 4 -3.68 4 -3 4 C-3 3.34 -3 2.68 -3 2 C-2.01 1.34 -1.02 0.68 0 0 Z " fill="#094B91" transform="translate(386,309)"/>
<path d="M0 0 C0.66 0 1.32 0 2 0 C2 0.66 2 1.32 2 2 C2.66 2.33 3.32 2.66 4 3 C3.01 4.32 2.02 5.64 1 7 C-1.97 6.505 -1.97 6.505 -5 6 C-3.74458443 3.48916886 -2.49936512 3.12874554 0 2 C0 1.34 0 0.68 0 0 Z " fill="#034689" transform="translate(51,293)"/>
<path d="M0 0 C1.32 1.32 2.64 2.64 4 4 C3.34 4.66 2.68 5.32 2 6 C1.01 6 0.02 6 -1 6 C-1 6.66 -1 7.32 -1 8 C-1.99 7.67 -2.98 7.34 -4 7 C-2 4 -2 4 0 3 C0 2.01 0 1.02 0 0 Z " fill="#E2EEF3" transform="translate(174,259)"/>
<path d="M0 0 C0.66 0.33 1.32 0.66 2 1 C2.309375 1.94875 2.61875 2.8975 2.9375 3.875 C3.94794567 6.84689902 4.62997461 8.06088831 7 10 C4 10 4 10 1.875 8.3125 C-0.17848152 5.77987279 -0.73880256 4.22143505 -1 1 C-0.67 0.67 -0.34 0.34 0 0 Z " fill="#13538B" transform="translate(108,218)"/>
<path d="M0 0 C0.66 0 1.32 0 2 0 C2.04125 0.61875 2.0825 1.2375 2.125 1.875 C2.41375 2.57625 2.7025 3.2775 3 4 C5.99615946 5.3045656 5.99615946 5.3045656 9 6 C8.01 6.495 8.01 6.495 7 7 C6.34 8.32 5.68 9.64 5 11 C3.35 7.37 1.7 3.74 0 0 Z " fill="#02377B" transform="translate(158,182)"/>
<path d="M0 0 C1.97986082 0.11347619 3.95891598 0.2410935 5.9375 0.375 C7.03964844 0.44460938 8.14179688 0.51421875 9.27734375 0.5859375 C10.62505859 0.79089844 10.62505859 0.79089844 12 1 C12.33 1.66 12.66 2.32 13 3 C10.03 3 7.06 3 4 3 C4 2.34 4 1.68 4 1 C2.68 0.67 1.36 0.34 0 0 Z " fill="#03317C" transform="translate(391,330)"/>
<path d="M0 0 C3.465 1.98 3.465 1.98 7 4 C3.92677456 4.91058531 1.19902639 5.08886184 -2 5 C-1.34 3.35 -0.68 1.7 0 0 Z " fill="#073F83" transform="translate(125,259)"/>
<path d="M0 0 C3.53586014 3.17320782 5.58578031 5.16743695 6 10 C3 8 3 8 2 5 C1.01 4.34 0.02 3.68 -1 3 C-0.67 2.01 -0.34 1.02 0 0 Z " fill="#0D4689" transform="translate(147,204)"/>
<path d="M0 0 C0.99 0.33 1.98 0.66 3 1 C1.68 3.64 0.36 6.28 -1 9 C-1.66 7.68 -2.32 6.36 -3 5 C-2.67 4.01 -2.34 3.02 -2 2 C-1.34 2 -0.68 2 0 2 C0 1.34 0 0.68 0 0 Z " fill="#023E84" transform="translate(345,194)"/>
<path d="M0 0 C0.99 0 1.98 0 3 0 C5.1519437 3.22791555 5.20086443 4.28400809 5 8 C2.5 5.6875 2.5 5.6875 0 3 C0 2.01 0 1.02 0 0 Z " fill="#074080" transform="translate(119,182)"/>
<path d="M0 0 C2.97 0 5.94 0 9 0 C9 0.99 9 1.98 9 3 C6.03 2.67 3.06 2.34 0 2 C0 1.34 0 0.68 0 0 Z " fill="#032E76" transform="translate(496,322)"/>
<path d="M0 0 C0.66 0.33 1.32 0.66 2 1 C1.67 2.32 1.34 3.64 1 5 C-1.875 5.125 -1.875 5.125 -5 5 C-5.66 4.34 -6.32 3.68 -7 3 C-5.68 3 -4.36 3 -3 3 C-3 2.34 -3 1.68 -3 1 C-2.01 0.67 -1.02 0.34 0 0 Z " fill="#084B92" transform="translate(477,287)"/>
<path d="M0 0 C1.65 1.32 3.3 2.64 5 4 C4.67 4.66 4.34 5.32 4 6 C2 6 0 6 -2 6 C-2 5.01 -2 4.02 -2 3 C-1.34 3 -0.68 3 0 3 C0 2.01 0 1.02 0 0 Z " fill="#074289" transform="translate(180,248)"/>
<path d="M0 0 C0.66 0.33 1.32 0.66 2 1 C2 1.66 2 2.32 2 3 C2.66 3 3.32 3 4 3 C4 4.65 4 6.3 4 8 C3.01 8.495 3.01 8.495 2 9 C1.87625 8.360625 1.7525 7.72125 1.625 7.0625 C1.315625 6.0415625 1.315625 6.0415625 1 5 C0.34 4.67 -0.32 4.34 -1 4 C-0.67 2.68 -0.34 1.36 0 0 Z " fill="#0C4F90" transform="translate(455,216)"/>
<path d="M0 0 C0.99 0 1.98 0 3 0 C4.31626692 3.61973402 5 6.09567131 5 10 C4.34 10 3.68 10 3 10 C2.01 6.7 1.02 3.4 0 0 Z " fill="#E4F3F7" transform="translate(208,196)"/>
<path d="M0 0 C0.33 0 0.66 0 1 0 C1 2.64 1 5.28 1 8 C0.01 8 -0.98 8 -2 8 C-2.33 8.66 -2.66 9.32 -3 10 C-3.66 9.67 -4.32 9.34 -5 9 C-3.35 6.03 -1.7 3.06 0 0 Z " fill="#113F7F" transform="translate(354,160)"/>
<path d="M0 0 C0.598125 0.226875 1.19625 0.45375 1.8125 0.6875 C0.8225 2.1725 0.8225 2.1725 -0.1875 3.6875 C-1.1775 3.6875 -2.1675 3.6875 -3.1875 3.6875 C-3.5175 4.6775 -3.8475 5.6675 -4.1875 6.6875 C-4.8475 6.3575 -5.5075 6.0275 -6.1875 5.6875 C-5.02477055 2.19931165 -4.06615469 -0.58087924 0 0 Z " fill="#074F94" transform="translate(403.1875,282.3125)"/>
<path d="M0 0 C3.465 1.98 3.465 1.98 7 4 C6.67 4.66 6.34 5.32 6 6 C5.34 6 4.68 6 4 6 C3.67 5.67 3.34 5.34 3 5 C2.01 5 1.02 5 0 5 C0 3.35 0 1.7 0 0 Z " fill="#06417F" transform="translate(61,219)"/>
<path d="M0 0 C0.99 0.33 1.98 0.66 3 1 C2.67 1.66 2.34 2.32 2 3 C3.98 3.66 5.96 4.32 8 5 C3.82412255 6.39195915 1.86525224 4.82323219 -2 3 C-1.34 2.01 -0.68 1.02 0 0 Z " fill="#034284" transform="translate(112,311)"/>
<path d="M0 0 C0.99 0.495 0.99 0.495 2 1 C1.01 1.495 1.01 1.495 0 2 C0 1.34 0 0.68 0 0 Z M-1 2 C-0.34 2.99 0.32 3.98 1 5 C1.99 5.33 2.98 5.66 4 6 C4 6.66 4 7.32 4 8 C1.69 7.34 -0.62 6.68 -3 6 C-2.34 4.68 -1.68 3.36 -1 2 Z " fill="#0A4289" transform="translate(98,279)"/>
<path d="M0 0 C0.66 1.32 1.32 2.64 2 4 C1.34 4 0.68 4 0 4 C-0.33 4.66 -0.66 5.32 -1 6 C-1.66 6 -2.32 6 -3 6 C-3.33 6.66 -3.66 7.32 -4 8 C-4.33 7.34 -4.66 6.68 -5 6 C-3.35 4.02 -1.7 2.04 0 0 Z " fill="#E6F5F7" transform="translate(173,272)"/>
<path d="M0 0 C0.33 0.66 0.66 1.32 1 2 C1.66 2.33 2.32 2.66 3 3 C2.01 3.99 1.02 4.98 0 6 C-1.32 4.35 -2.64 2.7 -4 1 C-2.68 0.67 -1.36 0.34 0 0 Z " fill="#0F4081" transform="translate(167,273)"/>
<path d="M0 0 C0.99 0 1.98 0 3 0 C3.66 2.31 4.32 4.62 5 7 C4.01 7.33 3.02 7.66 2 8 C0.74335022 5.09399739 0 3.20395416 0 0 Z " fill="#06397E" transform="translate(209,236)"/>
<path d="M0 0 C0.66 0 1.32 0 2 0 C2.66 3.3 3.32 6.6 4 10 C3.34 10 2.68 10 2 10 C1.71125 9.030625 1.4225 8.06125 1.125 7.0625 C0.35785318 3.89335797 0.35785318 3.89335797 -2 3 C-1.34 3 -0.68 3 0 3 C0 2.01 0 1.02 0 0 Z " fill="#094D94" transform="translate(298,234)"/>
<path d="M0 0 C2.12038635 2.61514317 4.13091744 5.19637616 6 8 C4.68 8.33 3.36 8.66 2 9 C0.50178941 5.62902617 0 3.79557881 0 0 Z " fill="#E0F1F6" transform="translate(150,226)"/>
<path d="M0 0 C0.66 0.33 1.32 0.66 2 1 C2 1.66 2 2.32 2 3 C2.99 3 3.98 3 5 3 C5 4.65 5 6.3 5 8 C2.5 5.6875 2.5 5.6875 0 3 C0 2.01 0 1.02 0 0 Z " fill="#063C7F" transform="translate(141,211)"/>
<path d="M0 0 C2.475 0.495 2.475 0.495 5 1 C4.34 2.65 3.68 4.3 3 6 C2.34 6 1.68 6 1 6 C0.67 4.02 0.34 2.04 0 0 Z " fill="#144986" transform="translate(373,136)"/>
<path d="M0 0 C2.97 1.98 2.97 1.98 6 4 C5.67 5.32 5.34 6.64 5 8 C4.34 7.01 3.68 6.02 3 5 C2.01 4.67 1.02 4.34 0 4 C0 2.68 0 1.36 0 0 Z " fill="#075299" transform="translate(118,289)"/>
<path d="M0 0 C1.3921875 0.3403125 1.3921875 0.3403125 2.8125 0.6875 C-0.12578597 3.19048434 -2.36652761 4.15680939 -6.1875 4.6875 C-6.1875 2.6875 -6.1875 2.6875 -5.0625 1 C-3.1875 -0.3125 -3.1875 -0.3125 0 0 Z " fill="#02377D" transform="translate(417.1875,278.3125)"/>
<path d="M0 0 C0.66 1.32 1.32 2.64 2 4 C-0.70879335 5.35439668 -3.00933268 5.06501451 -6 5 C-2.25 1.125 -2.25 1.125 0 0 Z " fill="#064084" transform="translate(365,274)"/>
<path d="M0 0 C0.66 0.33 1.32 0.66 2 1 C0.29374499 3.78388975 -0.47626739 4.85384206 -3.6875 5.75 C-4.8321875 5.87375 -4.8321875 5.87375 -6 6 C-6 5.34 -6 4.68 -6 4 C-4.03852126 2.61061923 -2.03833424 1.2739589 0 0 Z " fill="#E4F4F6" transform="translate(382,273)"/>
<path d="M0 0 C0.268125 0.598125 0.53625 1.19625 0.8125 1.8125 C1.98493467 3.97224808 3.19369282 5.35790256 5 7 C2 7 2 7 0.61328125 5.6875 C-0.59114583 4.125 -1.79557292 2.5625 -3 1 C-2.01 0.67 -1.02 0.34 0 0 Z " fill="#1F5386" transform="translate(138,247)"/>
<path d="M0 0 C0.33 1.32 0.66 2.64 1 4 C-1.4375 6.75 -1.4375 6.75 -4 9 C-4.66 8.67 -5.32 8.34 -6 8 C-4.02 5.36 -2.04 2.72 0 0 Z " fill="#DCEBEF" transform="translate(358,230)"/>
<path d="M0 0 C0.33 0.66 0.66 1.32 1 2 C0.67 2.99 0.34 3.98 0 5 C0.66 5.33 1.32 5.66 2 6 C1.01 6 0.02 6 -1 6 C-1 6.66 -1 7.32 -1 8 C-1.99 7.67 -2.98 7.34 -4 7 C-2.68 4.69 -1.36 2.38 0 0 Z " fill="#093A7D" transform="translate(47,213)"/>
<path d="M0 0 C1.65 0 3.3 0 5 0 C5.33 1.65 5.66 3.3 6 5 C5.01 5 4.02 5 3 5 C1.3125 2.5 1.3125 2.5 0 0 Z " fill="#084082" transform="translate(125,192)"/>
<path d="M0 0 C3.3 0.33 6.6 0.66 10 1 C8.515 2.485 8.515 2.485 7 4 C4.97954558 3.39816251 2.97888961 2.72693904 1 2 C0.67 1.34 0.34 0.68 0 0 Z " fill="#165995" transform="translate(413,328)"/>
<path d="M0 0 C1.65 0 3.3 0 5 0 C5.33 0.66 5.66 1.32 6 2 C3.09399739 3.25664978 1.20395416 4 -2 4 C-2 3.34 -2 2.68 -2 2 C-1.34 2 -0.68 2 0 2 C0 1.34 0 0.68 0 0 Z " fill="#065296" transform="translate(144,315)"/>
<path d="M0 0 C0.33 1.65 0.66 3.3 1 5 C0.01 4.67 -0.98 4.34 -2 4 C-2 3.67 -2 3.34 -2 3 C-4.97 2.505 -4.97 2.505 -8 2 C-4.91190305 0.23537317 -3.76687864 0 0 0 Z " fill="#033379" transform="translate(490,285)"/>
<path d="M0 0 C2.97 0.99 5.94 1.98 9 3 C5.71023192 4.09658936 4.28696233 3.79953138 1 3 C0.67 2.01 0.34 1.02 0 0 Z M1 4 C1.33 4.66 1.66 5.32 2 6 C1.34 5.67 0.68 5.34 0 5 C0.33 4.67 0.66 4.34 1 4 Z " fill="#053F84" transform="translate(87,270)"/>
<path d="M0 0 C1.98 0.66 3.96 1.32 6 2 C4.35 3.32 2.7 4.64 1 6 C-0.0625 4.125 -0.0625 4.125 -1 2 C-0.67 1.34 -0.34 0.68 0 0 Z " fill="#E7F3F5" transform="translate(384,256)"/>
<path d="M0 0 C0.33 0.99 0.66 1.98 1 3 C-0.98 4.32 -2.96 5.64 -5 7 C-5.66 6.67 -6.32 6.34 -7 6 C-4.69 4.02 -2.38 2.04 0 0 Z " fill="#18497F" transform="translate(359,252)"/>
<path d="M0 0 C1.65 0.33 3.3 0.66 5 1 C2.47211993 3.79872437 0.79588866 5.45773019 -3 6 C-3 5.34 -3 4.68 -3 4 C-2.01 4 -1.02 4 0 4 C0 2.68 0 1.36 0 0 Z " fill="#063878" transform="translate(412,249)"/>
<path d="M0 0 C0.99 0 1.98 0 3 0 C3.33 1.32 3.66 2.64 4 4 C2.02 4.99 0.04 5.98 -2 7 C-1.34 4.69 -0.68 2.38 0 0 Z " fill="#014B8D" transform="translate(28,247)"/>
<path d="M0 0 C0.2475 0.5775 0.495 1.155 0.75 1.75 C2.16683317 4.3002997 3.87627537 6.01785701 6 8 C2.74456771 7.65120368 1.98126893 6.97866739 -0.25 4.4375 C-1.11625 3.2309375 -1.11625 3.2309375 -2 2 C-1.34 1.34 -0.68 0.68 0 0 Z " fill="#06367E" transform="translate(118,228)"/>
<path d="M0 0 C1.5625 1.625 1.5625 1.625 3 4 C2.6875 7.25 2.6875 7.25 2 10 C-0.13262124 6.80106814 -0.59021548 4.77001757 -1 1 C-0.67 0.67 -0.34 0.34 0 0 Z " fill="#023E83" transform="translate(205,219)"/>
<path d="M0 0 C0.33 1.32 0.66 2.64 1 4 C0.34 4 -0.32 4 -1 4 C-1.33 4.66 -1.66 5.32 -2 6 C-3.32 6.33 -4.64 6.66 -6 7 C-4.02 4.69 -2.04 2.38 0 0 Z " fill="#022E6F" transform="translate(426,189)"/>
<path d="M0 0 C1.65 0.33 3.3 0.66 5 1 C4.01 1.495 4.01 1.495 3 2 C2.67 2.99 2.34 3.98 2 5 C0.68 4.34 -0.64 3.68 -2 3 C-1.34 2.01 -0.68 1.02 0 0 Z " fill="#025094" transform="translate(432,186)"/>
<path d="M0 0 C1.32 1.32 2.64 2.64 4 4 C2.02 4.33 0.04 4.66 -2 5 C-2 2 -2 2 0 0 Z " fill="#053276" transform="translate(436,180)"/>
<path d="M0 0 C1.65 1.65 3.3 3.3 5 5 C4.01 5.495 4.01 5.495 3 6 C0.875 5.0625 0.875 5.0625 -1 4 C-0.67 2.68 -0.34 1.36 0 0 Z " fill="#083E7E" transform="translate(114,161)"/>
<path d="M0 0 C0.33 0 0.66 0 1 0 C1.33 3.3 1.66 6.6 2 10 C1.01 9.01 0.02 8.02 -1 7 C-0.6875 3.3125 -0.6875 3.3125 0 0 Z " fill="#064A8B" transform="translate(365,139)"/>
<path d="M0 0 C0 0.99 0 1.98 0 3 C-4.75 2.25 -4.75 2.25 -7 0 C-3.86650268 -1.04449911 -3.01031744 -0.93423645 0 0 Z " fill="#064286" transform="translate(152,305)"/>
<path d="M0 0 C2.97 0.495 2.97 0.495 6 1 C5.01 2.485 5.01 2.485 4 4 C3.01 4 2.02 4 1 4 C0.67 2.68 0.34 1.36 0 0 Z " fill="#164583" transform="translate(192,249)"/>
<path d="M0 0 C0.99 0.66 1.98 1.32 3 2 C-2.75 6 -2.75 6 -5 6 C-5 5.34 -5 4.68 -5 4 C-4.34 4 -3.68 4 -3 4 C-3 3.34 -3 2.68 -3 2 C-2.01 1.34 -1.02 0.68 0 0 Z " fill="#E4F0F5" transform="translate(407,244)"/>
<path d="M0 0 C3 3.75 3 3.75 3 6 C1.68 6.33 0.36 6.66 -1 7 C-0.67 4.69 -0.34 2.38 0 0 Z " fill="#023675" transform="translate(201,242)"/>
<path d="M0 0 C3.465 1.98 3.465 1.98 7 4 C4.92446352 4.5534764 3.15634036 5 1 5 C0.67 3.35 0.34 1.7 0 0 Z " fill="#063A7B" transform="translate(85,234)"/>
<path d="M0 0 C1.32 0 2.64 0 4 0 C4 0.66 4 1.32 4 2 C3.34 2 2.68 2 2 2 C2 2.66 2 3.32 2 4 C0.35 4 -1.3 4 -3 4 C-1.75 2 -1.75 2 0 0 Z " fill="#18528B" transform="translate(390,222)"/>
<path d="M0 0 C0.33 0.99 0.66 1.98 1 3 C-0.4375 5.1875 -0.4375 5.1875 -2 7 C-2.99 6.67 -3.98 6.34 -5 6 C-3.35 4.02 -1.7 2.04 0 0 Z " fill="#093877" transform="translate(356,217)"/>
<path d="M0 0 C0.66 0.33 1.32 0.66 2 1 C1.60196439 3.88575819 1.20990931 4.82189513 -1.0625 6.75 C-1.701875 7.1625 -2.34125 7.575 -3 8 C-1.125 2.25 -1.125 2.25 0 0 Z " fill="#DFEAEE" transform="translate(345,199)"/>
<path d="M0 0 C0.99 0 1.98 0 3 0 C3.33 2.31 3.66 4.62 4 7 C3.01 7.33 2.02 7.66 1 8 C0.375 6.1875 0.375 6.1875 0 4 C0.66 3.01 1.32 2.02 2 1 C1.34 0.67 0.68 0.34 0 0 Z " fill="#085194" transform="translate(375,191)"/>
<path d="M0 0 C0.33 0.66 0.66 1.32 1 2 C2.32 2 3.64 2 5 2 C4.67 3.65 4.34 5.3 4 7 C2.35 5.35 0.7 3.7 -1 2 C-0.67 1.34 -0.34 0.68 0 0 Z " fill="#043E83" transform="translate(113,174)"/>
<path d="M0 0 C3.875 1.75 3.875 1.75 5 4 C4.05125 3.979375 3.1025 3.95875 2.125 3.9375 C-0.90666283 3.77448174 -0.90666283 3.77448174 -3 5 C-1.125 1.125 -1.125 1.125 0 0 Z " fill="#123E77" transform="translate(107,153)"/>
<path d="M0 0 C2.475 0.99 2.475 0.99 5 2 C4.01 3.98 3.02 5.96 2 8 C1.33333333 5.33333333 0.66666667 2.66666667 0 0 Z " fill="#033B7F" transform="translate(370,133)"/>
<path d="M0 0 C1.32 0.33 2.64 0.66 4 1 C3.6875 2.9375 3.6875 2.9375 3 5 C2.01 5.33 1.02 5.66 0 6 C0 4.02 0 2.04 0 0 Z " fill="#075194" transform="translate(212,110)"/>
</svg>
